<?xml version="1.0" encoding="UTF-8"?>
<svg width="210mm" height="297mm" version="1.1" viewBox="0 0 210 297" xmlns="http://www.w3.org/2000/svg">
 <g stroke="#000" stroke-width=".26458">
  <circle cx="-44.928" cy="20.701" r=".13488"/>
  <circle cx="-44.928" cy="20.701" r=".13488"/>
  <circle cx="-133.38" cy="26.059" r=".13488"/>
 </g>
 <g stroke-width=".18352">
  <path d="m81.71 184.86c4.8912-10.308 1.3674-3.3826 11.865-20.064 0.10966-0.24531-3.3596-1.7963-3.4692-1.551-8.3751 17.825-5.7 10.534-9.3423 21.344-0.01927 0.0669 0.92698 0.33849 0.94618 0.27159z"/>
  <path d="m60.158 156.66c5.4659-3.2028 10.428-7.1764 15.461-10.994 0.11168-0.11849-1.5641-1.6977-1.6757-1.5792-2.3752 1.9742-4.7505 3.9483-7.1257 5.9224-1.7281 1.4814-3.4371 2.9853-5.1844 4.4441-0.66413 0.55449-1.3654 1.0629-2.0481 1.5943-0.04332 0.0405 0.52937 0.65319 0.57269 0.6127z"/>
  <path d="m60.121 139.68c4.7954-0.45605 1.6578-0.15699 9.4125-0.90082 0.12322-0.0488-0.56649-1.7913-0.6897-1.7425-7.4405 1.5448-4.426 0.92657-9.0408 1.8688-0.05476 0.0225 0.2632 0.79698 0.31797 0.7745z"/>
  <path d="m64.002 123.47c6.8989 4.9537 2.4012 1.9077 13.872 8.5518 0.1542 0.11657 1.8026-2.0643 1.6484-2.1808-12.236-5.4375-7.3542-2.9188-14.904-7.0347-0.04694-0.0436-0.6635 0.62014-0.61657 0.66374z"/>
  <path d="m82.685 107.67c1.6176 5.0527 0.4997 1.7412 3.6441 9.8317 0.05056 0.13456 1.9534-0.58035 1.9029-0.71491-4.0504-7.6868-2.5422-4.5283-4.7661-9.3561-0.01689-0.0552-0.79775 0.18412-0.78083 0.23933z"/>
  <path d="m109.2 94.103c-1.1158 3.1538-2.4806 6.2111-3.6614 9.3395-1.0664 2.8253-2.0565 5.6789-3.0848 8.5183-0.0427 0.15359 2.1295 0.75782 2.1722 0.60421 0.88299-2.871 1.7644-5.7426 2.649-8.6132 2.3088-7.493 1.3288-4.0305 2.841-9.6195 0.0162-0.06478-0.89979-0.29406-0.916-0.22929z"/>
  <path d="m147.08 174.34c-0.66455-0.53584-1.3561-1.0398-1.9936-1.6075-1.8758-1.6703-3.6906-3.4078-5.5434-5.1036-2.7355-2.5038-5.4584-5.0216-8.2214-7.4951-3.0944-2.7702-6.2334-5.4902-9.35-8.2353-0.13332-0.15185-2.2811 1.7336-2.1478 1.8855 5.5326 4.6995 12.463 10.695 18.241 15.202 2.0288 1.5824 4.1331 3.0664 6.2351 4.5502 0.70959 0.50089 1.4644 0.93442 2.1966 1.4016 0.0422 0.0412 0.62534-0.55632 0.58309-0.59755z"/>
  <path d="m140.64 130.72c-0.51603-0.0669-1.0279-0.214-1.5481-0.20064-5.9373 0.15236-7.232 0.6312-13.557 1.6892-0.13203 0.0576 0.68297 1.925 0.81501 1.8673 0.19627-0.0432 10.848-2.4227 12.445-2.6576 0.51902-0.0763 1.0487 0.0326 1.5731 0.0489 0.0528 0.0193 0.3241-0.72797 0.27127-0.74715z"/>
  <path d="m116.21 106.94c-1.632 5.7157-0.52183 2.013-3.5818 11.03-0.0345 0.14857 2.0665 0.63646 2.101 0.4879 2.0446-9.3103 1.3521-5.5031 2.3389-11.371 0.0104-0.0607-0.8477-0.20705-0.85805-0.14638z"/>
 </g>
 <g stroke="#000" stroke-width=".18352">
  <circle cx="132.63" cy="113.94" r=".022843"/>
  <circle cx="132.63" cy="113.94" r=".022843"/>
  <circle cx="134.53" cy="71.754" r=".022843"/>
  <circle cx="134.53" cy="71.754" r=".022843"/>
 </g>
 <g stroke-width=".18352">
  <path d="m146.11 115.45c-5.2865 3.2035-10.113 7.0678-15.015 10.81-0.12032 0.12912 1.7057 1.8306 1.826 1.7015 13.892-11.794 1.2736-0.94464 12.234-10.682 0.48327-0.42935 0.99795-0.822 1.4969-1.233 0.0422-0.0383-0.49941-0.63463-0.54157-0.59633z"/>
  <path d="m67.667 100.53c0.22239 0.45261 0.42767 0.91403 0.66716 1.3578 2.3054 4.2718 4.9601 8.3278 7.6428 12.369 1.7012 2.5629 4.406 6.5285 6.1536 9.1 0.86433 1.2685 1.7287 2.5369 2.593 3.8054 0.05183 0.0972 1.4272-0.63569 1.3754-0.73295-0.82503-1.2939-1.6501-2.5877-2.4751-3.8816-3.0694-4.6302-6.146-9.2546-9.2985-13.829-0.9702-1.4078-1.9545-2.8058-2.9318-4.2088-0.72767-1.0071-1.4743-2.0008-2.183-3.0214-0.28757-0.41414-0.53628-0.85395-0.80442-1.2809-0.02278-0.0523-0.76191 0.26993-0.73913 0.32219z"/>
  <path d="m130.78 154.61c-2.4551-1.5219-4.9102-3.0437-7.3653-4.5656-0.13142-0.10184-1.5717 1.7568-1.4403 1.8586 2.6872 1.1923 5.3745 2.3846 8.0617 3.577 0.0615 0.0526 0.80537-0.81737 0.74385-0.86997z"/>
  <path d="m159.2 146.19c-11.769-3.0857-23.688-5.5753-35.566-8.1927-0.26257-0.11583-1.9007 3.5975-1.6381 3.7133 23.02 4.051 10.742 2.2194 31.042 4.6989 1.9008 0.23217 3.799 0.48503 5.6984 0.72754 0.067 0.0328 0.5308-0.91423 0.46384-0.94703z"/>
  <path d="m119.05 214.02c-0.14045-1.7774-0.22582-3.56-0.42136-5.3322-2.5451-23.067-2.1174-17.798-6.8019-44.572-0.071-0.40834-5.8459 0.59535-5.7749 1.0037 21.823 90.54-5.4259-21.816 10.889 43.772 0.43088 1.7322 0.73374 3.4938 1.1006 5.2407 8e-3 0.0712 1.0168-0.0409 1.0089-0.11215z"/>
  <path d="m89.597 200.84c0.43234-0.99404 0.97215-1.948 1.297-2.9821 4.824-15.357 3.9339-14.301 7.1428-32.526 0.03793-0.31549-4.4239-0.85182-4.4618-0.53632-0.94848 8.5702-2.4369 23.406-3.9263 32.701-0.17161 1.0709-0.56256 2.0948-0.84384 3.1422-0.01429 0.0561 0.77788 0.25732 0.79211 0.20135z"/>
  <path d="m65.548 183.64c4.1006-5.091 5.72-6.9374 9.9849-13.664 3.0476-4.8066 5.764-9.8152 8.646-14.723 0.11434-0.25393-3.4768-1.871-3.5911-1.6171-4.6594 9.0362-8.5388 16.806-13.439 25.536-0.7624 1.3584-1.63 2.6549-2.445 3.9824-0.03432 0.0597 0.80966 0.54506 0.84398 0.48538z"/>
  <path d="m94.54 94.501c0.03828 0.80716 0.10583 1.6135 0.11482 2.4215 0.02804 2.5239-0.0026 5.0481-0.0039 7.5722 0.04692 3.949 0.09386 7.898 0.14078 11.847 0.0082 0.20885 2.9616 0.0932 2.9534-0.11565-0.59069-7.259-0.90678-14.642-2.4415-21.792-0.0048-0.054-0.7684 0.01277-0.76367 0.06681z"/>
  <path d="m124.56 81.656c-0.38482 0.90082-0.71961 1.8247-1.1545 2.7025-13.36 26.967 1.7877-5.1751-15.374 32.025-0.11241 0.32509 4.4851 1.915 4.5975 1.5899 4.4869-11.91 9.3544-23.792 12.749-36.089 0.016-0.05785-0.80195-0.28607-0.81809-0.22822z"/>
  <path d="m153.51 97.165c-0.60391 0.59199-1.1187 1.2913-1.8117 1.776-4.2416 2.9663-8.6396 5.7025-12.959 8.5538-6.0759 4.3702-12.152 8.7404-18.228 13.111-0.2452 0.25248 3.3254 3.72 3.5706 3.4675 13.96-11.362 16.845-13.12 28.569-24.468 0.61087-0.59127 1.0349-1.3491 1.5523-2.0236 0.0294-0.04897-0.66333-0.465-0.69275-0.41601z"/>
  <path d="m143.06 198.26c-0.48089-0.57243-1.024-1.0978-1.4427-1.7173-1.9263-2.8504-3.6962-5.8036-5.5837-8.6797-8.8503-13.485-11.41-17.116-20.783-30.895-0.15604-0.27786-4.0855 1.9288-3.9294 2.2066 3.8719 5.4136 7.6377 10.905 11.616 16.241 6.7946 9.1147 10.67 13.962 17.791 21.787 0.51308 0.56385 1.114 1.041 1.671 1.5616 0.0357 0.0468 0.69682-0.45712 0.66119-0.50388z"/>
  <path d="m58.303 166.44c5.3961-2.503 10.391-5.7896 15.254-9.1918 1.6517-1.1555 3.2599-2.372 4.8898-3.558 0.10276-0.10053-1.319-1.5538-1.4218-1.4532-4.9063 3.4768-9.8467 6.9072-14.741 10.4-1.1093 0.7917-2.1963 1.6144-3.3052 2.4067-0.38665 0.27626-0.78728 0.53239-1.1809 0.79859-0.04224 0.0357 0.46303 0.63305 0.50527 0.59733z"/>
  <path d="m56.905 130.69c2.8424 1.5802 5.7429 3.0645 8.6852 4.4495 1.5661 0.73724 3.1553 1.4244 4.733 2.1366 0.10758 0.0736 1.1486-1.4478 1.0411-1.5214-4.6235-1.9896-9.2435-3.9943-13.977-5.7119-0.04575-0.0341-0.52766 0.61305-0.4819 0.64712z"/>
  <path d="m65.842 113.37c0.46826 0.52837 0.94566 1.0488 1.4048 1.5851 8.2713 9.6623 1.8969 2.5335 12.276 13.779 0.1333 0.17449 2.601-1.7107 2.4677-1.8852-8.7882-8.4061-5.7786-5.8152-13.847-12.617-0.54749-0.46151-1.1125-0.90183-1.6687-1.3527-0.03468-0.0447-0.66704 0.4458-0.63236 0.49051z"/>
 </g>
 <g stroke="#000" stroke-width=".11393px">
  <path d="m155.91 106.64-1.5235 3.7518-4.4639-1.0588 3.844 3.0321-1.3025 4.2464 3.0917-2.67 3.819 2.5728-1.8462-4.1477 3.0488-3.3125-4.1404 1.4661z"/>
  <path d="m79.733 203.26-1.5235 3.7518-4.4639-1.0588 3.844 3.0321-1.3025 4.2464 3.0917-2.67 3.819 2.5728-1.8462-4.1476 3.0488-3.3125-4.1404 1.4661z"/>
  <path d="m168.19 136.59-1.5235 3.7518-4.4639-1.0588 3.844 3.0321-1.3025 4.2464 3.0917-2.67 3.819 2.5728-1.8462-4.1477 3.0488-3.3125-4.1404 1.4661z"/>
  <path d="m153.97 159.78-1.5235 3.7518-4.4639-1.0588 3.844 3.0321-1.3025 4.2464 3.0917-2.67 3.819 2.5728-1.8462-4.1477 3.0488-3.3125-4.1404 1.4661z"/>
  <path d="m51.581 108.11-1.5235 3.7518-4.4639-1.0588 3.844 3.0321-1.3025 4.2464 3.0917-2.67 3.819 2.5728-1.8462-4.1477 3.0488-3.3125-4.1404 1.4661z"/>
  <path d="m81.522 92.816-1.5235 3.7518-4.4639-1.0588 3.844 3.0321-1.3025 4.2464 3.0917-2.67 3.819 2.5728-1.8462-4.1477 3.0488-3.3125-4.1404 1.4661z"/>
 </g>
 <g transform="scale(.94275 1.0607)" stroke-width=".90922" aria-label="1">
  <path d="m31.799 16.832q0.14547-0.65464 0.10911-1.2002 0-0.54553-0.07274-1.1274-0.32732-1.5638-1.673-1.5638-0.691 0-1.4547 0.43642-0.29095 0.25458-0.5819 0.47279-0.29095 0.21821-0.5819 0.40005-0.40006 0.32732-0.72737 0.61827-0.32732 0.25458-0.5819 0.47279l0.03637-0.03637q-1.2729 1.0183-2.1821 1.7821-0.90922 0.72737-1.4184 1.1638-0.47279 0.40006-0.94558 1.1638-0.25458 0.43642-0.40006 0.76374-0.14547 0.29095-0.21821 0.54553-0.21821 1.2002 0.54553 1.8184l-0.10911-0.03637q0.65464 0.80011 1.5275 0.80011 0.07274 0 0.25458-0.03637 0.21821-0.03637 0.47279-0.10911h0.03637l-5.2734 15.42q-0.07274 0.10911-0.07274 0.21821 0 0.07274-0.03637 0.18184-0.25458 1.1638 0.21821 2.073l-0.03637-0.03637q0.43642 0.98195 1.6366 0.98195 1.7093 0 2.9459-3.0913 0.32732-0.72737 0.54553-1.4184 0.21821-0.691 0.50916-1.4184 0.07274-0.18184 0.10911-0.36369 0.03637-0.21821 0.1091-0.40006v0.03637q0.76374-1.9639 1.3456-3.3823 0.61827-1.4184 1.0183-2.364 0.50916-1.1638 0.87285-2.0003 0.36369-0.87285 0.691-1.6002 0.10911-0.43642 0.36369-0.87285 0.43642-1.1274 0.80011-2.073 0.36369-0.98195 0.61827-1.7457 0.18184-0.47279 0.36369-1.0183 0.21821-0.54553 0.32732-0.90922 0.29095-0.80011 0.43642-1.2002t0.29095-0.72737q0.07274-0.21821 0.10911-0.36369 0.03637-0.14547 0.07274-0.25458z"/>
  <path d="m203.12 17.871q0.14547-0.65464 0.1091-1.2002 0-0.54553-0.0727-1.1274-0.32731-1.5638-1.673-1.5638-0.691 0-1.4548 0.43642-0.29094 0.25458-0.58189 0.47279t-0.5819 0.40006q-0.40006 0.32732-0.72737 0.61827-0.32732 0.25458-0.5819 0.47279l0.0364-0.03637q-1.2729 1.0183-2.1821 1.7821-0.90921 0.72737-1.4184 1.1638-0.47279 0.40005-0.94559 1.1638-0.25458 0.43642-0.40005 0.76374-0.14548 0.29095-0.21821 0.54553-0.21821 1.2002 0.54553 1.8184l-0.10911-0.03637q0.65464 0.80011 1.5275 0.80011 0.0727 0 0.25458-0.03637 0.21821-0.03637 0.47279-0.10911h0.0364l-5.2734 15.42q-0.0727 0.10911-0.0727 0.21821 0 0.07274-0.0364 0.18184-0.25458 1.1638 0.21821 2.073l-0.0364-0.03637q0.43643 0.98195 1.6366 0.98195 1.7093 0 2.9459-3.0913 0.32731-0.72737 0.54553-1.4184 0.21821-0.691 0.50916-1.4184 0.0727-0.18184 0.1091-0.36369 0.0364-0.21821 0.10911-0.40006v0.03637q0.76374-1.9639 1.3456-3.3823 0.61826-1.4184 1.0183-2.364 0.50916-1.1638 0.87284-2.0003 0.36369-0.87285 0.69101-1.6002 0.1091-0.43642 0.36368-0.87285 0.43642-1.1274 0.80011-2.073 0.36369-0.98195 0.61827-1.7457 0.18184-0.47279 0.36368-1.0183 0.21821-0.54553 0.32732-0.90922 0.29095-0.80011 0.43642-1.2002 0.14548-0.40005 0.29095-0.72737 0.0727-0.21821 0.10911-0.36369 0.0364-0.14547 0.0727-0.25458z"/>
 </g>
 <g transform="matrix(.94275 0 0 1.0607 3.9811 235.83)" stroke-width=".90922" aria-label="1">
  <path d="m31.799 16.832q0.14547-0.65464 0.10911-1.2002 0-0.54553-0.07274-1.1274-0.32732-1.5638-1.673-1.5638-0.691 0-1.4547 0.43642-0.29095 0.25458-0.5819 0.47279-0.29095 0.21821-0.5819 0.40005-0.40006 0.32732-0.72737 0.61827-0.32732 0.25458-0.5819 0.47279l0.03637-0.03637q-1.2729 1.0183-2.1821 1.7821-0.90922 0.72737-1.4184 1.1638-0.47279 0.40006-0.94558 1.1638-0.25458 0.43642-0.40006 0.76374-0.14547 0.29095-0.21821 0.54553-0.21821 1.2002 0.54553 1.8184l-0.10911-0.03637q0.65464 0.80011 1.5275 0.80011 0.07274 0 0.25458-0.03637 0.21821-0.03637 0.47279-0.10911h0.03637l-5.2734 15.42q-0.07274 0.10911-0.07274 0.21821 0 0.07274-0.03637 0.18184-0.25458 1.1638 0.21821 2.073l-0.03637-0.03637q0.43642 0.98195 1.6366 0.98195 1.7093 0 2.9459-3.0913 0.32732-0.72737 0.54553-1.4184 0.21821-0.691 0.50916-1.4184 0.07274-0.18184 0.10911-0.36369 0.03637-0.21821 0.1091-0.40006v0.03637q0.76374-1.9639 1.3456-3.3823 0.61827-1.4184 1.0183-2.364 0.50916-1.1638 0.87285-2.0003 0.36369-0.87285 0.691-1.6002 0.10911-0.43642 0.36369-0.87285 0.43642-1.1274 0.80011-2.073 0.36369-0.98195 0.61827-1.7457 0.18184-0.47279 0.36369-1.0183 0.21821-0.54553 0.32732-0.90922 0.29095-0.80011 0.43642-1.2002t0.29095-0.72737q0.07274-0.21821 0.10911-0.36369 0.03637-0.14547 0.07274-0.25458z"/>
  <path d="m203.12 17.871q0.14547-0.65464 0.1091-1.2002 0-0.54553-0.0727-1.1274-0.32731-1.5638-1.673-1.5638-0.691 0-1.4548 0.43642-0.29094 0.25458-0.58189 0.47279t-0.5819 0.40006q-0.40006 0.32732-0.72737 0.61827-0.32732 0.25458-0.5819 0.47279l0.0364-0.03637q-1.2729 1.0183-2.1821 1.7821-0.90921 0.72737-1.4184 1.1638-0.47279 0.40005-0.94559 1.1638-0.25458 0.43642-0.40005 0.76374-0.14548 0.29095-0.21821 0.54553-0.21821 1.2002 0.54553 1.8184l-0.10911-0.03637q0.65464 0.80011 1.5275 0.80011 0.0727 0 0.25458-0.03637 0.21821-0.03637 0.47279-0.10911h0.0364l-5.2734 15.42q-0.0727 0.10911-0.0727 0.21821 0 0.07274-0.0364 0.18184-0.25458 1.1638 0.21821 2.073l-0.0364-0.03637q0.43643 0.98195 1.6366 0.98195 1.7093 0 2.9459-3.0913 0.32731-0.72737 0.54553-1.4184 0.21821-0.691 0.50916-1.4184 0.0727-0.18184 0.1091-0.36369 0.0364-0.21821 0.10911-0.40006v0.03637q0.76374-1.9639 1.3456-3.3823 0.61826-1.4184 1.0183-2.364 0.50916-1.1638 0.87284-2.0003 0.36369-0.87285 0.69101-1.6002 0.1091-0.43642 0.36368-0.87285 0.43642-1.1274 0.80011-2.073 0.36369-0.98195 0.61827-1.7457 0.18184-0.47279 0.36368-1.0183 0.21821-0.54553 0.32732-0.90922 0.29095-0.80011 0.43642-1.2002 0.14548-0.40005 0.29095-0.72737 0.0727-0.21821 0.10911-0.36369 0.0364-0.14547 0.0727-0.25458z"/>
 </g>
</svg>
