<?xml version="1.0" encoding="UTF-8"?>
<svg width="210mm" height="297mm" version="1.1" viewBox="0 0 210 297" xmlns="http://www.w3.org/2000/svg">
 <g stroke="#000" stroke-width=".26458">
  <circle cx="-44.928" cy="20.701" r=".13488"/>
  <circle cx="-44.928" cy="20.701" r=".13488"/>
  <circle cx="-133.38" cy="26.059" r=".13488"/>
 </g>
 <g stroke-width=".11418">
  <path d="m46.463 137.05c2.9151-6.6944 0.81492-2.1968 7.0716-13.031 0.06536-0.15932-2.0022-1.1666-2.0676-1.0073-4.9914 11.577-3.3971 6.8415-5.5679 13.862-0.01148 0.0434 0.55246 0.21983 0.56391 0.17638z"/>
  <path d="m33.618 118.74c3.2576-2.0801 6.2148-4.6608 9.2147-7.1403 0.06656-0.0769-0.93215-1.1026-0.99871-1.0256-1.4156 1.2821-2.8312 2.5642-4.2468 3.8464-1.0299 0.96208-2.0485 1.9388-3.0898 2.8862-0.39581 0.36012-0.81377 0.69029-1.2207 1.0354-0.02582 0.0263 0.31549 0.42422 0.34131 0.39792z"/>
  <path d="m33.596 107.71c2.858-0.29618 0.98802-0.10195 5.6097-0.58504 0.07343-0.0317-0.33762-1.1634-0.41105-1.1317-4.4344 1.0033-2.6378 0.60176-5.3882 1.2137-0.03264 0.0146 0.15686 0.5176 0.1895 0.503z"/>
  <path d="m35.909 97.178c4.1116 3.2172 1.4311 1.239 8.2675 5.554 0.0919 0.0757 1.0743-1.3407 0.98242-1.4164-7.2926-3.5315-4.3829-1.8956-8.8825-4.5687-0.02797-0.0283-0.39544 0.40275-0.36746 0.43107z"/>
  <path d="m47.044 86.916c0.96409 3.2815 0.29782 1.1308 2.1718 6.3853 0.03013 0.0874 1.1642-0.37691 1.1341-0.4643-2.414-4.9923-1.5151-2.941-2.8405-6.0764-0.01007-0.03585-0.47545 0.11958-0.46536 0.15543z"/>
  <path d="m62.845 78.108c-0.66501 2.0482-1.4784 4.0338-2.1821 6.0656-0.63557 1.8349-1.2257 3.6882-1.8385 5.5323-0.02545 0.0998 1.2691 0.49218 1.2946 0.39241 0.52625-1.8646 1.0516-3.7296 1.5787-5.5939 1.376-4.8664 0.79195-2.6176 1.6932-6.2475 0.0097-0.04207-0.53626-0.19098-0.54592-0.14891z"/>
  <path d="m85.425 130.22c-0.39606-0.348-0.80821-0.67533-1.1882-1.044-1.1179-1.0848-2.1995-2.2132-3.3037-3.3146-1.6303-1.6261-3.2531-3.2613-4.8998-4.8677-1.8442-1.7991-3.715-3.5656-5.5725-5.3485-0.07946-0.0986-1.3595 1.1259-1.2801 1.2246 3.2973 3.0522 7.4279 6.946 10.872 9.8728 1.2092 1.0277 2.4632 1.9915 3.716 2.9552 0.4229 0.32531 0.87277 0.60687 1.3092 0.91029 0.0251 0.0268 0.37269-0.3613 0.34751-0.38808z"/>
  <path d="m81.586 101.89c-0.30754-0.0434-0.61263-0.13898-0.92264-0.1303-3.5385 0.0989-4.3101 0.40993-8.0796 1.097-0.07869 0.0374 0.40704 1.2502 0.48573 1.2128 0.11697-0.0281 6.4653-1.5734 7.4173-1.726 0.30933-0.0496 0.62502 0.0212 0.93752 0.0318 0.0315 0.0125 0.19316-0.47279 0.16167-0.48525z"/>
  <path d="m67.024 86.448c-0.97266 3.7121-0.311 1.3074-2.1347 7.1632-0.02056 0.0965 1.2316 0.41336 1.2521 0.31687 1.2185-6.0467 0.80583-3.574 1.3939-7.385 0.0062-0.03942-0.50522-0.13447-0.51138-0.09507z"/>
 </g>
 <g stroke="#000">
  <circle cx="76.811" cy="90.989" rx=".013614" ry=".014836" stroke-width=".11418"/>
  <circle cx="76.811" cy="90.989" rx=".013614" ry=".014836" stroke-width=".11418"/>
  <circle cx="134.53" cy="71.754" r=".022843" stroke-width=".18352"/>
  <circle cx="134.53" cy="71.754" r=".022843" stroke-width=".18352"/>
 </g>
 <g stroke-width=".11418">
  <path d="m84.845 91.97c-3.1507 2.0805-6.0271 4.5902-8.9488 7.0206-0.07171 0.0839 1.0166 1.1889 1.0883 1.105 8.2794-7.6596 0.75907-0.6135 7.2911-6.9376 0.28802-0.27885 0.59476-0.53385 0.89214-0.80078 0.0252-0.0249-0.29764-0.41217-0.32277-0.38729z"/>
  <path d="m38.094 82.281c0.13254 0.29395 0.25488 0.59362 0.39762 0.88185 1.374 2.7744 2.9561 5.4085 4.555 8.0332 1.0139 1.6645 2.6259 4.24 3.6674 5.91 0.51513 0.82382 1.0303 1.6476 1.5454 2.4714 0.03089 0.0631 0.85058-0.41285 0.8197-0.47602-0.49171-0.84031-0.98341-1.6806-1.4751-2.5209-1.8293-3.0072-3.6629-6.0104-5.5417-8.9813-0.57822-0.91431-1.1649-1.8223-1.7473-2.7334-0.43368-0.65409-0.87868-1.2994-1.301-1.9623-0.17139-0.26897-0.31961-0.5546-0.47942-0.8319-0.01358-0.03397-0.45409 0.17531-0.44051 0.20925z"/>
  <path d="m75.709 117.4c-1.4632-0.98839-2.9264-1.9768-4.3896-2.9652-0.07832-0.0661-0.93673 1.141-0.85841 1.2071 1.6016 0.77436 3.2031 1.5487 4.8047 2.3231 0.03665 0.0342 0.47999-0.53084 0.44332-0.565z"/>
  <path d="m92.648 111.94c-7.0139-2.004-14.118-3.6209-21.197-5.3208-0.15649-0.0752-1.1328 2.3364-0.97629 2.4116 13.72 2.6309 6.4021 1.4414 18.5 3.0518 1.1328 0.15079 2.2641 0.31501 3.3962 0.47251 0.0399 0.0213 0.31634-0.59376 0.27644-0.61506z"/>
  <path d="m68.718 155.99c-0.08371-1.1543-0.13458-2.3121-0.25112-3.463-1.5169-14.981-1.2619-11.559-4.0538-28.947-0.04232-0.2652-3.484 0.38666-3.4417 0.65186 13.006 58.802-3.2337-14.168 6.4894 28.428 0.2568 1.125 0.4373 2.2691 0.65594 3.4036 0.0048 0.0462 0.60602-0.0266 0.6013-0.0728z"/>
  <path d="m51.164 147.43c0.25766-0.64558 0.57938-1.2651 0.77299-1.9368 2.875-9.9738 2.3446-9.2876 4.257-21.124 0.02261-0.2049-2.6366-0.55322-2.6592-0.34832-0.56527 5.566-1.4523 15.201-2.34 21.238-0.10228 0.69548-0.33528 1.3605-0.50291 2.0408-0.0085 0.0364 0.4636 0.16712 0.47208 0.13077z"/>
  <path d="m36.83 136.26c2.4439-3.3064 3.409-4.5055 5.9508-8.8742 1.8163-3.1216 3.4352-6.3746 5.1529-9.5619 0.06815-0.16492-2.0721-1.2152-2.1403-1.0502-2.7769 5.8686-5.089 10.915-8.0092 16.585-0.45438 0.88219-0.97147 1.7242-1.4572 2.5864-0.02045 0.0388 0.48254 0.354 0.503 0.31524z"/>
  <path d="m54.11 78.367c0.02281 0.52421 0.06307 1.0479 0.06843 1.5726 0.01671 1.6392-0.0016 3.2786-0.0023 4.9178 0.02796 2.5647 0.05594 5.1294 0.0839 7.6941 0.0049 0.13564 1.765 0.0605 1.7602-0.0751-0.35204-4.7144-0.54042-9.5093-1.4551-14.153-0.0029-0.03507-0.45795 0.0083-0.45514 0.04339z"/>
  <path d="m72 70.025c-0.22935 0.58505-0.42888 1.1851-0.68804 1.7551-7.9623 17.514 1.0654-3.361-9.1629 20.799-0.06699 0.21113 2.6731 1.2437 2.74 1.0325 2.6741-7.735 5.5751-15.452 7.5984-23.438 0.0095-0.03757-0.47795-0.18579-0.48757-0.14822z"/>
  <path d="m89.254 80.097c-0.35992 0.38447-0.66673 0.83866-1.0798 1.1534-2.528 1.9265-5.149 3.7035-7.7236 5.5553-3.6211 2.8383-7.2422 5.6765-10.863 8.5148-0.14614 0.16397 1.9819 2.416 2.128 2.252 8.3198-7.3788 10.039-8.521 17.026-15.891 0.36406-0.384 0.61676-0.87618 0.92515-1.3143 0.0175-0.0318-0.39534-0.302-0.41287-0.27018z"/>
  <path d="m83.025 145.76c-0.2866-0.37176-0.61032-0.713-0.8598-1.1153-1.148-1.8512-2.2028-3.7692-3.3278-5.6371-5.2746-8.7581-6.7999-11.116-12.386-20.065-0.093-0.18046-2.4349 1.2526-2.3419 1.4331 2.3076 3.5159 4.552 7.0821 6.9227 10.548 4.0495 5.9196 6.3592 9.0676 10.603 14.15 0.30578 0.3662 0.66392 0.67611 0.99589 1.0142 0.0213 0.0304 0.41529-0.29688 0.39406-0.32725z"/>
  <path d="m32.513 125.09c3.216-1.6256 6.1929-3.7601 9.0912-5.9697 0.98437-0.75047 1.9428-1.5405 2.9143-2.3108 0.06124-0.0653-0.78613-1.0091-0.84737-0.94381-2.9241 2.2581-5.8685 4.486-8.7855 6.7546-0.66114 0.51418-1.309 1.0485-1.9698 1.5631-0.23044 0.17942-0.46921 0.34577-0.70381 0.51865-0.02517 0.0232 0.27596 0.41114 0.30113 0.38794z"/>
  <path d="m31.68 101.87c1.694 1.0263 3.4227 1.9902 5.1762 2.8898 0.93338 0.47881 1.8805 0.9251 2.8208 1.3876 0.06412 0.0478 0.68456-0.94026 0.62045-0.98807-2.7555-1.2922-5.509-2.5941-8.3302-3.7096-0.02727-0.0222-0.31448 0.39815-0.28721 0.42027z"/>
  <path d="m37.006 90.622c0.27908 0.34316 0.5636 0.68114 0.83722 1.0295 4.9296 6.2753 1.1305 1.6454 7.3161 8.9488 0.07945 0.11332 1.5502-1.111 1.4707-1.2244-5.2376-5.4594-3.444-3.7767-8.2526-8.1939-0.32629-0.29973-0.66302-0.5857-0.99454-0.87854-0.02067-0.029-0.39755 0.28953-0.37688 0.31856z"/>
 </g>
 <g stroke="#000" stroke-width=".070879px">
  <path d="m90.684 86.249-0.90801 2.4366-2.6604-0.68766 2.291 1.9692-0.77628 2.7579 1.8426-1.7341 2.276 1.6709-1.1003-2.6937 1.817-2.1513-2.4676 0.95217z"/>
  <path d="m45.285 149-0.908 2.4366-2.6604-0.68766 2.291 1.9692-0.77628 2.7579 1.8426-1.7341 2.2761 1.6709-1.1003-2.6937 1.817-2.1513-2.4676 0.95216z"/>
  <path d="m98.002 105.7-0.908 2.4366-2.6604-0.68766 2.291 1.9692-0.77628 2.7579 1.8426-1.7341 2.2761 1.6709-1.1003-2.6937 1.817-2.1513-2.4676 0.95217z"/>
  <path d="m89.529 120.76-0.90801 2.4366-2.6604-0.68767 2.291 1.9692-0.77628 2.7579 1.8426-1.7341 2.2761 1.6709-1.1003-2.6937 1.817-2.1513-2.4676 0.95217z"/>
  <path d="m28.506 87.203-0.908 2.4366-2.6604-0.68766 2.291 1.9692-0.77628 2.7579 1.8426-1.7341 2.2761 1.6709-1.1003-2.6937 1.817-2.1513-2.4676 0.95217z"/>
  <path d="m46.351 77.273-0.908 2.4366-2.6604-0.68766 2.291 1.9692-0.77628 2.7579 1.8426-1.7341 2.2761 1.6709-1.1003-2.6937 1.817-2.1513-2.4676 0.95217z"/>
 </g>
 <g stroke-width=".11418">
  <path d="m122.95 211.05c2.9151-6.6944 0.81492-2.1968 7.0716-13.031 0.0654-0.15932-2.0022-1.1666-2.0676-1.0073-4.9914 11.577-3.3971 6.8415-5.5679 13.862-0.0115 0.0434 0.55247 0.21983 0.56391 0.17638z"/>
  <path d="m110.1 192.73c3.2576-2.0801 6.2148-4.6608 9.2146-7.1403 0.0666-0.0769-0.93215-1.1026-0.9987-1.0256-1.4156 1.2821-2.8312 2.5642-4.2468 3.8464-1.0299 0.96208-2.0485 1.9388-3.0898 2.8862-0.39581 0.36012-0.81377 0.69029-1.2206 1.0354-0.0258 0.0263 0.31549 0.42422 0.34131 0.39792z"/>
  <path d="m110.08 181.7c2.858-0.29618 0.98802-0.10195 5.6097-0.58504 0.0734-0.0317-0.33761-1.1634-0.41105-1.1317-4.4344 1.0033-2.6378 0.60176-5.3882 1.2137-0.0326 0.0146 0.15686 0.5176 0.1895 0.503z"/>
  <path d="m112.39 171.17c4.1116 3.2172 1.431 1.239 8.2675 5.554 0.0919 0.0757 1.0743-1.3407 0.98243-1.4164-7.2926-3.5314-4.383-1.8956-8.8825-4.5687-0.028-0.0283-0.39544 0.40275-0.36746 0.43107z"/>
  <path d="m123.53 160.91c0.96409 3.2815 0.29782 1.1308 2.1718 6.3853 0.0301 0.0874 1.1642-0.37691 1.1341-0.4643-2.414-4.9923-1.5151-2.941-2.8405-6.0764-0.0101-0.0358-0.47545 0.11958-0.46537 0.15543z"/>
  <path d="m139.33 152.1c-0.66501 2.0482-1.4784 4.0338-2.1821 6.0656-0.63557 1.8349-1.2256 3.6882-1.8385 5.5323-0.0255 0.0998 1.2692 0.49218 1.2946 0.39241 0.52624-1.8646 1.0516-3.7296 1.5787-5.5939 1.376-4.8664 0.79195-2.6176 1.6932-6.2475 0.01-0.0421-0.53626-0.19098-0.54592-0.14892z"/>
  <path d="m161.91 204.21c-0.39606-0.348-0.80821-0.67533-1.1882-1.044-1.1179-1.0848-2.1995-2.2132-3.3037-3.3146-1.6303-1.6261-3.2531-3.2613-4.8998-4.8677-1.8442-1.7991-3.715-3.5656-5.5725-5.3485-0.0795-0.0986-1.3595 1.1259-1.2801 1.2246 3.2974 3.0522 7.4279 6.946 10.872 9.8728 1.2092 1.0277 2.4632 1.9915 3.716 2.9552 0.4229 0.32531 0.87277 0.60687 1.3092 0.91029 0.0251 0.0268 0.37269-0.3613 0.34751-0.38808z"/>
  <path d="m158.07 175.88c-0.30754-0.0434-0.61263-0.13898-0.92264-0.1303-3.5385 0.0989-4.3101 0.40993-8.0796 1.097-0.0787 0.0374 0.40704 1.2502 0.48574 1.2128 0.11697-0.0281 6.4653-1.5734 7.4173-1.726 0.30933-0.0496 0.62502 0.0212 0.93752 0.0318 0.0315 0.0125 0.19316-0.47279 0.16167-0.48525z"/>
  <path d="m143.51 160.44c-0.97265 3.7121-0.311 1.3074-2.1347 7.1632-0.0206 0.0965 1.2316 0.41336 1.2521 0.31687 1.2185-6.0467 0.80583-3.574 1.3939-7.385 6e-3 -0.0394-0.50521-0.13447-0.51138-0.0951z"/>
  <circle cx="153.29" cy="164.98" r="0" stroke="#000"/>
  <circle cx="153.29" cy="164.98" r="0" stroke="#000"/>
  <path d="m161.33 165.96c-3.1507 2.0805-6.0271 4.5902-8.9488 7.0206-0.0717 0.0839 1.0166 1.1889 1.0883 1.105 8.2794-7.6596 0.75907-0.6135 7.2911-6.9376 0.28802-0.27885 0.59476-0.53385 0.89214-0.80078 0.0252-0.0249-0.29764-0.41217-0.32277-0.38729z"/>
  <path d="m114.58 156.27c0.13254 0.29395 0.25488 0.59363 0.39762 0.88185 1.374 2.7744 2.9561 5.4085 4.555 8.0332 1.0139 1.6645 2.6259 4.24 3.6674 5.91 0.51513 0.82382 1.0302 1.6476 1.5454 2.4714 0.0309 0.0631 0.85058-0.41285 0.81969-0.47602-0.4917-0.84031-0.98341-1.6806-1.4751-2.5209-1.8293-3.0072-3.6629-6.0104-5.5417-8.9813-0.57822-0.91431-1.1648-1.8223-1.7473-2.7334-0.43368-0.65409-0.87868-1.2994-1.301-1.9623-0.17138-0.26897-0.31961-0.55461-0.47941-0.8319-0.0136-0.034-0.45409 0.1753-0.44051 0.20924z"/>
  <path d="m152.19 191.39c-1.4632-0.98839-2.9264-1.9768-4.3896-2.9652-0.0783-0.0661-0.93673 1.141-0.8584 1.2071 1.6016 0.77436 3.2031 1.5487 4.8046 2.3231 0.0366 0.0342 0.47999-0.53084 0.44333-0.565z"/>
  <path d="m169.13 185.93c-7.0139-2.004-14.118-3.6209-21.197-5.3208-0.15649-0.0752-1.1328 2.3364-0.97629 2.4116 13.72 2.6309 6.4021 1.4414 18.5 3.0518 1.1328 0.15079 2.2641 0.31501 3.3962 0.47251 0.0399 0.0213 0.31634-0.59376 0.27644-0.61506z"/>
  <path d="m145.2 229.98c-0.0837-1.1543-0.13459-2.3121-0.25113-3.463-1.5168-14.981-1.2619-11.559-4.0538-28.947-0.0423-0.2652-3.484 0.38666-3.4417 0.65186 13.006 58.802-3.2337-14.168 6.4894 28.428 0.2568 1.125 0.4373 2.2691 0.65595 3.4036 5e-3 0.0462 0.60602-0.0266 0.6013-0.0728z"/>
  <path d="m127.65 221.42c0.25766-0.64558 0.57938-1.2651 0.77299-1.9368 2.875-9.9738 2.3446-9.2876 4.257-21.124 0.0226-0.2049-2.6366-0.55322-2.6592-0.34832-0.56527 5.566-1.4523 15.201-2.34 21.238-0.10227 0.69548-0.33527 1.3605-0.50291 2.0408-8e-3 0.0364 0.4636 0.16712 0.47209 0.13077z"/>
  <path d="m113.31 210.25c2.4439-3.3064 3.409-4.5055 5.9508-8.8742 1.8163-3.1216 3.4352-6.3746 5.1528-9.5619 0.0682-0.16492-2.0721-1.2152-2.1403-1.0502-2.7769 5.8686-5.089 10.915-8.0092 16.585-0.45437 0.88219-0.97146 1.7242-1.4572 2.5864-0.0205 0.0388 0.48254 0.354 0.503 0.31524z"/>
  <path d="m130.59 152.36c0.0228 0.52421 0.0631 1.0479 0.0684 1.5726 0.0167 1.6392-2e-3 3.2786-2e-3 4.9178 0.028 2.5647 0.0559 5.1294 0.0839 7.6941 5e-3 0.13564 1.765 0.0605 1.7602-0.0751-0.35204-4.7144-0.54042-9.5093-1.4551-14.153-3e-3 -0.0351-0.45795 8e-3 -0.45513 0.0434z"/>
  <path d="m148.48 144.02c-0.22935 0.58505-0.42888 1.1851-0.68804 1.7551-7.9624 17.514 1.0654-3.361-9.1629 20.799-0.067 0.21113 2.673 1.2437 2.74 1.0325 2.6741-7.735 5.5751-15.452 7.5984-23.438 0.01-0.0376-0.47795-0.18579-0.48756-0.14822z"/>
  <path d="m165.74 154.09c-0.35992 0.38447-0.66673 0.83866-1.0798 1.1534-2.528 1.9265-5.149 3.7035-7.7236 5.5553-3.6211 2.8383-7.2422 5.6765-10.863 8.5148-0.14614 0.16397 1.9819 2.416 2.128 2.252 8.3198-7.3788 10.039-8.521 17.026-15.891 0.36406-0.384 0.61676-0.87618 0.92515-1.3143 0.0175-0.0318-0.39534-0.30199-0.41287-0.27018z"/>
  <path d="m159.51 219.75c-0.2866-0.37176-0.61032-0.713-0.8598-1.1153-1.148-1.8512-2.2028-3.7692-3.3278-5.6371-5.2746-8.7581-6.7999-11.116-12.386-20.065-0.093-0.18046-2.4349 1.2526-2.3419 1.4331 2.3076 3.5159 4.552 7.0821 6.9227 10.548 4.0494 5.9196 6.3592 9.0676 10.603 14.15 0.30578 0.3662 0.66392 0.67611 0.99589 1.0142 0.0213 0.0304 0.41529-0.29688 0.39406-0.32725z"/>
  <path d="m109 199.08c3.216-1.6256 6.1929-3.7601 9.0912-5.9697 0.98437-0.75047 1.9428-1.5405 2.9142-2.3108 0.0612-0.0653-0.78613-1.0091-0.84737-0.94381-2.924 2.2581-5.8685 4.486-8.7855 6.7546-0.66114 0.51418-1.309 1.0485-1.9698 1.5631-0.23044 0.17942-0.46921 0.34577-0.70381 0.51865-0.0252 0.0232 0.27596 0.41114 0.30113 0.38794z"/>
  <path d="m108.16 175.86c1.694 1.0263 3.4226 1.9902 5.1762 2.8898 0.93337 0.47881 1.8805 0.9251 2.8208 1.3876 0.0641 0.0478 0.68456-0.94026 0.62045-0.98807-2.7555-1.2922-5.509-2.5941-8.3302-3.7096-0.0273-0.0222-0.31448 0.39815-0.28721 0.42027z"/>
  <path d="m113.49 164.61c0.27907 0.34316 0.5636 0.68114 0.83722 1.0295 4.9296 6.2753 1.1305 1.6454 7.3161 8.9488 0.0795 0.11332 1.5502-1.111 1.4707-1.2243-5.2376-5.4594-3.444-3.7767-8.2526-8.1939-0.32629-0.29973-0.66302-0.5857-0.99453-0.87854-0.0207-0.029-0.39755 0.28953-0.37688 0.31856z"/>
 </g>
 <g stroke="#000" stroke-width=".070879px">
  <path d="m167.17 160.24-0.90801 2.4366-2.6604-0.68766 2.291 1.9692-0.77628 2.7579 1.8426-1.7341 2.276 1.6709-1.1003-2.6937 1.817-2.1514-2.4676 0.95218z"/>
  <path d="m121.77 222.99-0.908 2.4366-2.6604-0.68766 2.291 1.9692-0.77628 2.7579 1.8426-1.7341 2.2761 1.6709-1.1003-2.6937 1.817-2.1513-2.4676 0.95216z"/>
  <path d="m174.49 179.69-0.908 2.4366-2.6604-0.68766 2.291 1.9692-0.77628 2.7579 1.8426-1.7341 2.2761 1.6709-1.1003-2.6937 1.817-2.1513-2.4676 0.95217z"/>
  <path d="m166.01 194.75-0.90801 2.4366-2.6604-0.68767 2.291 1.9692-0.77628 2.7579 1.8426-1.7341 2.2761 1.6709-1.1003-2.6937 1.817-2.1513-2.4676 0.95217z"/>
  <path d="m104.99 161.2-0.908 2.4366-2.6604-0.68766 2.291 1.9692-0.77627 2.7579 1.8426-1.7341 2.2761 1.6709-1.1003-2.6937 1.817-2.1513-2.4676 0.95217z"/>
  <path d="m122.83 151.27-0.908 2.4366-2.6604-0.68766 2.291 1.9692-0.77628 2.7579 1.8426-1.7341 2.2761 1.6709-1.1003-2.6937 1.817-2.1513-2.4676 0.95217z"/>
 </g>
 <g transform="scale(.94275 1.0607)" stroke-width=".90922" aria-label="2">
  <path d="m39.691 38.726q0.21821-0.94558-0.21821-2.0366v0.03637q-0.40005-1.0911-1.2729-1.3456-0.61827-0.1091-1.6366-0.18184-0.98195-0.07274-2.4367-0.07274h-5.528v-0.03637q0.07274-0.14548 0.25458-0.36369 0.18184-0.21821 0.65464-0.5819 0.47279-0.32732 0.83648-0.65464 0.40005-0.32732 0.87285-0.72737 0.54553-0.50916 1.0183-0.90922 0.50916-0.40005 0.90922-0.80011 0.43642-0.40006 0.80011-0.691 0.36369-0.32732 0.691-0.61827 6.1099-4.9098 7.8556-7.7829 0.40005-0.61827 0.65464-1.3456 0.29095-0.72737 0.47279-1.5638 0.50916-2.4003-0.50916-3.9278-1.0183-1.5638-3.4186-1.5638-2.073 0-5.5644 0.87285-0.98195 0.25458-2.1457 0.65464-1.1274 0.36369-2.5094 0.87285-3.2004 1.2365-5.4917 3.746-0.83648 0.87285-1.3456 1.7821-0.50916 0.87285-0.691 1.7457-0.18184 0.72737-0.18184 1.2002 0.03637 0.47279 0.14548 0.76374 0.40005 1.0183 1.8184 1.0183 1.4184 0 2.1094-1.1274l0.94558-1.4911q1.7821-2.2912 6.8009-3.8551 1.1638-0.40006 2.0003-0.50916 1.1638-0.21821 1.7457-0.29095 0.61827-0.07274 0.80011-0.07274 0.29095 0 0.40006 0.03637v0.07274q-0.29095 1.2002-3.4186 4.0005l0.03637-0.03637q-1.2365 1.0547-2.4003 2.0366-1.1638 0.98195-2.364 2.0366-0.98195 0.83648-2.0366 1.7457t-2.2185 1.8912h0.03637q-1.2002 1.0547-2.5094 2.1821l-3.6369 3.055q-1.4547 1.2002-2.2185 2.1457-0.76374 0.94558-0.90922 1.5638-0.21821 1.0911 0.5819 2.073 0.87285 0.94558 1.8184 0.94558 0.43642 0 3.1277-0.94558h-0.03637q1.8548-0.5819 3.2732-0.87285 1.4184-0.32732 2.5458-0.32732h5.6371q0.43642 0 1.4911 0.10911h-0.03637q0.54553 0.07274 0.90922 0.14547 0.40006 0.03637 0.76374 0.03637 2.2912 0 2.7276-2.0366z"/>
  <path d="m203.15 39.765q0.21822-0.94558-0.21821-2.0366v0.03637q-0.40005-1.0911-1.2729-1.3456-0.61826-0.10911-1.6366-0.18184-0.98195-0.07274-2.4367-0.07274h-5.528v-0.03637q0.0727-0.14548 0.25458-0.36369 0.18184-0.21821 0.65464-0.5819 0.47279-0.32732 0.83647-0.65464 0.40006-0.32732 0.87285-0.72737 0.54553-0.50916 1.0183-0.90921 0.50916-0.40006 0.90922-0.80011 0.43642-0.40005 0.80011-0.691 0.36368-0.32732 0.691-0.61827 6.1099-4.9098 7.8556-7.7829 0.40005-0.61827 0.65463-1.3456 0.29095-0.72737 0.47279-1.5638 0.50916-2.4003-0.50916-3.9278-1.0183-1.5638-3.4186-1.5638-2.073 0-5.5644 0.87285-0.98195 0.25458-2.1458 0.65463-1.1274 0.36369-2.5094 0.87285-3.2004 1.2365-5.4917 3.746-0.83648 0.87285-1.3456 1.7821-0.50916 0.87285-0.691 1.7457-0.18185 0.72737-0.18185 1.2002 0.0364 0.47279 0.14548 0.76374 0.40005 1.0183 1.8184 1.0183 1.4184 0 2.1094-1.1274l0.94558-1.4911q1.7821-2.2912 6.8009-3.8551 1.1638-0.40006 2.0003-0.50916 1.1638-0.21821 1.7457-0.29095 0.61826-0.07274 0.8001-0.07274 0.29095 0 0.40006 0.03637v0.07274q-0.29095 1.2002-3.4186 4.0005l0.0364-0.03637q-1.2365 1.0547-2.4003 2.0366-1.1638 0.98195-2.364 2.0366-0.98195 0.83648-2.0366 1.7457t-2.2185 1.8912h0.0364q-1.2002 1.0547-2.5094 2.1821l-3.6369 3.055q-1.4547 1.2002-2.2185 2.1457-0.76374 0.94558-0.90922 1.5638-0.21821 1.0911 0.5819 2.073 0.87285 0.94558 1.8184 0.94558 0.43642 0 3.1277-0.94558h-0.0364q1.8548-0.5819 3.2732-0.87285 1.4184-0.32732 2.5458-0.32732h5.6371q0.43642 0 1.4911 0.10911h-0.0364q0.54553 0.07274 0.90922 0.14548 0.40005 0.03637 0.76374 0.03637 2.2912 0 2.7276-2.0366z"/>
  <path d="m39.434 260.72q0.21821-0.94559-0.21821-2.0366v0.0364q-0.40005-1.091-1.2729-1.3456-0.61827-0.10911-1.6366-0.18185-0.98195-0.0727-2.4367-0.0727h-5.528v-0.0364q0.07274-0.14548 0.25458-0.36369 0.18184-0.21821 0.65464-0.5819 0.47279-0.32731 0.83648-0.65463 0.40006-0.32732 0.87285-0.72737 0.54553-0.50916 1.0183-0.90922 0.50916-0.40005 0.90922-0.80011 0.43642-0.40005 0.80011-0.691 0.36369-0.32732 0.691-0.61827 6.1099-4.9098 7.8556-7.7829 0.40006-0.61826 0.65464-1.3456 0.29095-0.72738 0.47279-1.5638 0.50916-2.4003-0.50916-3.9278-1.0183-1.5638-3.4186-1.5638-2.073 0-5.5644 0.87284-0.98195 0.25458-2.1457 0.65464-1.1274 0.36368-2.5094 0.87284-3.2004 1.2365-5.4917 3.746-0.83648 0.87285-1.3456 1.7821-0.50916 0.87285-0.691 1.7457-0.18184 0.72738-0.18184 1.2002 0.03637 0.47279 0.14547 0.76374 0.40006 1.0183 1.8184 1.0183t2.1094-1.1274l0.94558-1.4911q1.7821-2.2912 6.8009-3.8551 1.1638-0.40006 2.0003-0.50916 1.1638-0.21821 1.7457-0.29095 0.61827-0.0727 0.80011-0.0727 0.29095 0 0.40006 0.0364v0.0727q-0.29095 1.2002-3.4186 4.0005l0.03637-0.0364q-1.2365 1.0547-2.4003 2.0366-1.1638 0.98195-2.364 2.0366-0.98195 0.83648-2.0366 1.7457-1.0547 0.90922-2.2185 1.8912h0.03637q-1.2002 1.0547-2.5094 2.1821l-3.6369 3.055q-1.4547 1.2002-2.2185 2.1457-0.76374 0.94559-0.90922 1.5638-0.21821 1.0911 0.5819 2.073 0.87285 0.94559 1.8184 0.94559 0.43642 0 3.1277-0.94559h-0.03637q1.8548-0.58189 3.2732-0.87284 1.4184-0.32732 2.5458-0.32732h5.6371q0.43642 0 1.4911 0.10911h-0.03637q0.54553 0.0727 0.90922 0.14547 0.40006 0.0364 0.76374 0.0364 2.2912 0 2.7276-2.0366z"/>
  <path d="m202.89 261.76q0.21822-0.94559-0.21821-2.0366v0.0364q-0.40005-1.091-1.2729-1.3456-0.61827-0.10911-1.6366-0.18185-0.98195-0.0727-2.4367-0.0727h-5.528v-0.0364q0.0727-0.14548 0.25458-0.36369 0.18184-0.21821 0.65464-0.5819 0.47279-0.32731 0.83647-0.65463 0.40006-0.32732 0.87285-0.72737 0.54553-0.50916 1.0183-0.90922 0.50916-0.40005 0.90922-0.80011 0.43642-0.40005 0.8001-0.691 0.36369-0.32732 0.69101-0.61827 6.1099-4.9098 7.8556-7.7829 0.40005-0.61826 0.65463-1.3456 0.29095-0.72737 0.47279-1.5638 0.50916-2.4003-0.50916-3.9278-1.0183-1.5638-3.4186-1.5638-2.073 0-5.5644 0.87284-0.98195 0.25458-2.1458 0.65464-1.1274 0.36368-2.5094 0.87284-3.2004 1.2365-5.4917 3.746-0.83648 0.87285-1.3456 1.7821-0.50916 0.87285-0.691 1.7457-0.18185 0.72737-0.18185 1.2002 0.0364 0.47279 0.14548 0.76374 0.40005 1.0183 1.8184 1.0183 1.4184 0 2.1094-1.1274l0.94558-1.4911q1.7821-2.2912 6.8009-3.8551 1.1638-0.40006 2.0003-0.50916 1.1638-0.21821 1.7457-0.29095 0.61827-0.0727 0.80011-0.0727 0.29095 0 0.40006 0.0364v0.0727q-0.29095 1.2002-3.4186 4.0005l0.0364-0.0364q-1.2365 1.0547-2.4003 2.0366-1.1638 0.98195-2.364 2.0366-0.98195 0.83648-2.0366 1.7457t-2.2185 1.8912h0.0364q-1.2002 1.0547-2.5094 2.1821l-3.6369 3.055q-1.4547 1.2002-2.2185 2.1457-0.76374 0.94559-0.90922 1.5638-0.21821 1.0911 0.5819 2.073 0.87285 0.94559 1.8184 0.94559 0.43642 0 3.1277-0.94559h-0.0364q1.8548-0.58189 3.2732-0.87284 1.4184-0.32732 2.5458-0.32732h5.6371q0.43642 0 1.4911 0.1091h-0.0364q0.54553 0.0727 0.90922 0.14548 0.40005 0.0364 0.76374 0.0364 2.2912 0 2.7276-2.0366z"/>
 </g>
</svg>
