<?xml version="1.0" encoding="UTF-8"?>
<svg width="210mm" height="297mm" version="1.1" viewBox="0 0 210 297" xmlns="http://www.w3.org/2000/svg">
 <g stroke="#000" stroke-width=".26458">
  <circle cx="-44.928" cy="20.701" r=".13488"/>
  <circle cx="-44.928" cy="20.701" r=".13488"/>
  <circle cx="-133.38" cy="26.059" r=".13488"/>
 </g>
 <g stroke-width=".095368">
  <path d="m31.931 132.27c2.3753-5.7317 0.66404-1.8809 5.7623-11.157 0.05326-0.13641-1.6315-0.99886-1.6848-0.86245-4.0673 9.9119-2.7681 5.8577-4.537 11.868-0.0094 0.0372 0.45018 0.18822 0.4595 0.15102z"/>
  <path d="m21.464 116.58c2.6544-1.781 5.0642-3.9906 7.5086-6.1135 0.05424-0.0658-0.75956-0.94405-0.8138-0.87816-1.1535 1.0978-2.307 2.1955-3.4605 3.2932-0.83924 0.82373-1.6692 1.66-2.5177 2.4712-0.32253 0.30834-0.6631 0.59103-0.99465 0.88653-0.02104 0.0225 0.25708 0.36322 0.27812 0.3407z"/>
  <path d="m21.446 107.14c2.3288-0.25359 0.80509-0.0873 4.5711-0.50091 0.05983-0.0271-0.27511-0.99606-0.33494-0.96894-3.6134 0.85903-2.1494 0.51522-4.3906 1.0392-0.0266 0.0125 0.12782 0.44317 0.15442 0.43067z"/>
  <path d="m23.331 98.125c3.3504 2.7546 1.1661 1.0608 6.7368 4.7553 0.07488 0.0648 0.87542-1.1479 0.80053-1.2127-5.9424-3.0236-3.5715-1.623-7.2379-3.9117-0.02279-0.02423-0.32222 0.34483-0.29943 0.36908z"/>
  <path d="m32.404 89.339c0.78559 2.8096 0.24268 0.96821 1.7697 5.467 0.02455 0.07483 0.94865-0.32271 0.9241-0.39753-1.967-4.2744-1.2346-2.518-2.3146-5.2026-0.0082-0.0307-0.38742 0.10238-0.3792 0.13308z"/>
  <path d="m45.279 81.798c-0.54188 1.7537-1.2047 3.4537-1.7781 5.1933-0.51789 1.5711-0.99872 3.1578-1.4981 4.7367-0.02074 0.08545 1.0342 0.4214 1.0549 0.33598 0.42881-1.5965 0.85687-3.1932 1.2864-4.7895 1.1213-4.1666 0.64532-2.2412 1.3797-5.3491 0.0079-0.03602-0.43697-0.16352-0.44484-0.1275z"/>
  <path d="m63.679 126.41c-0.32273-0.29796-0.65857-0.57822-0.96819-0.89389-0.91096-0.92876-1.7923-1.895-2.6921-2.8379-1.3285-1.3923-2.6508-2.7923-3.9926-4.1677-1.5028-1.5404-3.0272-3.0529-4.5407-4.5793-0.06475-0.0844-1.1078 0.96401-1.0431 1.0485 2.6868 2.6132 6.0527 5.9472 8.8587 8.4531 0.98528 0.8799 2.0072 1.7051 3.028 2.5302 0.3446 0.27853 0.71118 0.5196 1.0668 0.77939 0.02045 0.0229 0.30369-0.30934 0.28317-0.33227z"/>
  <path d="m60.55 102.16c-0.2506-0.0372-0.4992-0.119-0.75181-0.11157-2.8834 0.0847-3.5121 0.35098-6.5836 0.93929-0.06412 0.032 0.33168 1.0704 0.3958 1.0384 0.09531-0.0241 5.2682-1.3472 6.044-1.4778 0.25206-0.0425 0.5093 0.0181 0.76394 0.0272 0.02567 0.0107 0.1574-0.40481 0.13174-0.41547z"/>
  <path d="m48.685 88.938c-0.79257 3.1783-0.25342 1.1194-1.7395 6.1331-0.01675 0.08262 1.0036 0.35392 1.0203 0.2713 0.99292-5.1771 0.65663-3.0601 1.1358-6.323 0.0051-0.03375-0.41168-0.11513-0.4167-0.0814z"/>
 </g>
 <g stroke="#000">
  <circle cx="56.66" cy="92.826" rx=".011093" ry=".012702" stroke-width=".095368"/>
  <circle cx="56.66" cy="92.826" rx=".011093" ry=".012702" stroke-width=".095368"/>
  <ellipse cx="95.218" cy="77.29" rx=".018614" ry=".019558" stroke-width=".15329"/>
  <ellipse cx="95.218" cy="77.29" rx=".018614" ry=".019558" stroke-width=".15329"/>
 </g>
 <g stroke-width=".095368">
  <path d="m63.206 93.666c-2.5673 1.7813-4.9112 3.9301-7.2919 6.011-0.05843 0.07183 0.82837 1.0179 0.8868 0.94613 6.7465-6.5582 0.61853-0.52527 5.9412-5.9399 0.23469-0.23875 0.48464-0.45708 0.72696-0.68562 0.02053-0.02132-0.24253-0.3529-0.26301-0.3316z"/>
  <path d="m25.111 85.37c0.108 0.25168 0.20769 0.50826 0.324 0.75503 1.1196 2.3754 2.4088 4.6308 3.7116 6.878 0.82618 1.4251 2.1397 3.6303 2.9884 5.0602 0.41975 0.70535 0.8395 1.4107 1.2593 2.116 0.02517 0.054 0.6931-0.35348 0.66793-0.40757-0.40067-0.71947-0.80134-1.4389-1.202-2.1584-1.4906-2.5747-2.9847-5.1461-4.5157-7.6898-0.47116-0.78282-0.94918-1.5602-1.4238-2.3403-0.35338-0.56003-0.716-1.1126-1.0602-1.6801-0.13965-0.23029-0.26044-0.47485-0.39065-0.71227-0.01107-0.02908-0.37001 0.1501-0.35895 0.17916z"/>
  <path d="m55.761 115.44c-1.1923-0.84625-2.3846-1.6925-3.5768-2.5388-0.06382-0.0566-0.7633 0.97688-0.69947 1.0335 1.305 0.663 2.6101 1.326 3.9151 1.989 0.02986 0.0293 0.39112-0.4545 0.36124-0.48375z"/>
  <path d="m69.564 110.76c-5.7152-1.7158-11.504-3.1002-17.272-4.5557-0.12752-0.0644-0.92304 2.0004-0.79553 2.0648 11.179 2.2526 5.2167 1.2341 15.075 2.6129 0.92309 0.1291 1.8449 0.26971 2.7674 0.40456 0.03251 0.0182 0.25777-0.50838 0.22526-0.52661z"/>
  <path d="m50.065 148.48c-0.06821-0.98834-0.10967-1.9796-0.20463-2.965-1.236-12.827-1.0283-9.897-3.3032-24.785-0.03448-0.22706-2.839 0.33106-2.8045 0.55812 10.598 50.346-2.635-12.131 5.2879 24.34 0.20925 0.96321 0.35633 1.9428 0.5345 2.9141 0.0039 0.0396 0.49382-0.0228 0.48997-0.0623z"/>
  <path d="m35.761 141.15c0.20996-0.55274 0.47211-1.0832 0.62988-1.6582 2.3427-8.5395 1.9105-7.952 3.4688-18.087 0.01842-0.17543-2.1484-0.47366-2.1668-0.29823-0.46062 4.7656-1.1834 13.015-1.9068 18.184-0.08334 0.59547-0.2732 1.1649-0.4098 1.7473-0.0069 0.0312 0.37776 0.14308 0.38468 0.11196z"/>
  <path d="m24.082 131.59c1.9914-2.8309 2.7778-3.8576 4.849-7.598 1.48-2.6728 2.7992-5.4579 4.1988-8.1868 0.05553-0.14121-1.6885-1.0404-1.744-0.89922-2.2628 5.0247-4.1468 9.3453-6.5263 14.2-0.37025 0.75533-0.7916 1.4763-1.1874 2.2144-0.01666 0.0332 0.3932 0.30309 0.40987 0.26991z"/>
  <path d="m38.162 82.019c0.01859 0.44883 0.05139 0.89718 0.05576 1.3465 0.01362 1.4035-0.0013 2.8071-0.0019 4.2106 0.02278 2.1959 0.04558 4.3918 0.06837 6.5877 4e-3 0.11614 1.4382 0.0518 1.4343-0.0643-0.28686-4.0365-0.44036-8.1419-1.1857-12.118-0.0024-0.03003-0.37316 0.0071-0.37087 0.03715z"/>
  <path d="m66.799 83.5c-0.29328 0.32918-0.54329 0.71806-0.87984 0.98755-2.0599 1.6494-4.1957 3.171-6.2935 4.7564-2.9507 2.4301-5.9014 4.8602-8.852 7.2903-0.11908 0.14039 1.6149 2.0685 1.734 1.9281 6.7794-6.3177 8.1803-7.2957 13.874-13.606 0.29666-0.32878 0.50257-0.75018 0.75386-1.1253 0.01426-0.02723-0.32214-0.25857-0.33643-0.23133z"/>
  <path d="m61.723 139.72c-0.23354-0.3183-0.49732-0.61046-0.70061-0.9549-0.93549-1.585-1.795-3.2272-2.7117-4.8265-4.298-7.4986-5.5409-9.5177-10.093-17.18-0.07578-0.15451-1.9841 1.0725-1.9083 1.227 1.8803 3.0103 3.7092 6.0636 5.641 9.0309 3.2997 5.0683 5.1818 7.7636 8.6398 12.115 0.24916 0.31354 0.541 0.57889 0.8115 0.86832 0.01736 0.026 0.3384-0.25418 0.3211-0.28019z"/>
  <path d="m20.563 122.02c2.6205-1.3918 5.0463-3.2194 7.4079-5.1112 0.80212-0.64255 1.5831-1.319 2.3747-1.9785 0.0499-0.0559-0.64058-0.86399-0.69048-0.80808-2.3827 1.9333-4.7819 3.8408-7.1589 5.7832-0.53873 0.44024-1.0666 0.89773-1.6051 1.3383-0.18777 0.15362-0.38233 0.29605-0.5735 0.44406-0.02051 0.0199 0.22486 0.35202 0.24538 0.33216z"/>
  <path d="m19.884 102.14c1.3804 0.8787 2.789 1.704 4.2179 2.4742 0.76056 0.40995 1.5323 0.79206 2.2985 1.1881 0.05225 0.0409 0.55782-0.80505 0.50557-0.84598-2.2453-1.1064-4.489-2.2211-6.7879-3.1762-0.02222-0.019-0.25625 0.3409-0.23403 0.35984z"/>
  <path d="m24.225 92.512c0.2274 0.29381 0.45925 0.58319 0.68221 0.88142 4.0169 5.3729 0.92119 1.4088 5.9615 7.6619 0.06474 0.097 1.2631-0.95126 1.1984-1.0483-4.2679-4.6743-2.8063-3.2336-6.7246-7.0156-0.26588-0.25663-0.54026-0.50147-0.8104-0.7522-0.01684-0.02483-0.32394 0.2479-0.3071 0.27275z"/>
 </g>
 <g stroke="#000" stroke-width=".059203px">
  <path d="m67.965 88.768-0.73989 2.0862-2.1678-0.58877 1.8668 1.6861-0.63255 2.3613 1.5015-1.4847 1.8546 1.4306-0.89658-2.3064 1.4806-1.842-2.0108 0.81525z"/>
  <path d="m30.971 142.5-0.73989 2.0862-2.1678-0.58877 1.8668 1.686-0.63255 2.3613 1.5014-1.4847 1.8546 1.4306-0.89658-2.3064 1.4806-1.842-2.0108 0.81523z"/>
  <path d="m70.971 88.024-0.73988 2.0862-2.1678-0.58877 1.8668 1.6861-0.63255 2.3613 1.5015-1.4847 1.8546 1.4306-0.89659-2.3064 1.4806-1.842-2.0108 0.81524z"/>
  <path d="m67.023 118.32-0.73989 2.0862-2.1678-0.58878 1.8668 1.6861-0.63255 2.3613 1.5014-1.4847 1.8547 1.4306-0.89658-2.3064 1.4806-1.842-2.0108 0.81524z"/>
  <path d="m17.299 89.585-0.73989 2.0862-2.1678-0.58877 1.8668 1.686-0.63255 2.3613 1.5014-1.4847 1.8547 1.4306-0.89659-2.3064 1.4806-1.842-2.0108 0.81524z"/>
  <path d="m31.839 81.082-0.73989 2.0862-2.1678-0.58877 1.8668 1.6861-0.63255 2.3613 1.5014-1.4847 1.8546 1.4306-0.89658-2.3064 1.4806-1.842-2.0108 0.81524z"/>
 </g>
 <g stroke-width=".095368">
  <path d="m55.083 225.37c2.3753-5.7317 0.66404-1.8809 5.7623-11.157 0.05326-0.1364-1.6315-0.99885-1.6848-0.86244-4.0673 9.9119-2.7681 5.8577-4.537 11.868-0.0094 0.0372 0.45018 0.18822 0.4595 0.15101z"/>
  <path d="m44.617 209.69c2.6544-1.781 5.0642-3.9906 7.5086-6.1135 0.05424-0.0658-0.75956-0.94404-0.8138-0.87816-1.1535 1.0978-2.307 2.1955-3.4605 3.2932-0.83924 0.82373-1.6692 1.66-2.5177 2.4712-0.32253 0.30834-0.6631 0.59103-0.99465 0.88653-0.02104 0.0225 0.25708 0.36322 0.27812 0.3407z"/>
  <path d="m44.599 200.24c2.3288-0.25359 0.80509-0.0873 4.5711-0.50091 0.05983-0.0271-0.27511-0.99606-0.33494-0.96894-3.6134 0.85903-2.1494 0.51522-4.3906 1.0392-0.0266 0.0125 0.12782 0.44317 0.15442 0.43067z"/>
  <path d="m46.484 191.23c3.3504 2.7546 1.1661 1.0608 6.7368 4.7553 0.07488 0.0648 0.87542-1.1479 0.80053-1.2127-5.9424-3.0236-3.5715-1.623-7.2379-3.9117-0.02279-0.0242-0.32222 0.34483-0.29943 0.36908z"/>
  <path d="m55.557 182.44c0.78559 2.8096 0.24268 0.96821 1.7697 5.467 0.02455 0.0748 0.94865-0.32271 0.9241-0.39754-1.967-4.2744-1.2346-2.518-2.3146-5.2026-0.0082-0.0307-0.38742 0.10239-0.3792 0.13309z"/>
  <path d="m68.432 174.9c-0.54188 1.7537-1.2047 3.4537-1.7781 5.1933-0.51789 1.571-0.99872 3.1578-1.4981 4.7367-0.02074 0.0855 1.0342 0.42141 1.0549 0.33598 0.42881-1.5965 0.85687-3.1932 1.2864-4.7894 1.1213-4.1666 0.64532-2.2412 1.3797-5.3491 0.0079-0.0361-0.43697-0.16352-0.44484-0.1275z"/>
  <path d="m86.831 219.52c-0.32273-0.29796-0.65857-0.57822-0.96819-0.89389-0.91096-0.92876-1.7923-1.895-2.6921-2.8379-1.3285-1.3923-2.6508-2.7923-3.9926-4.1677-1.5028-1.5404-3.0272-3.0529-4.5407-4.5793-0.06475-0.0844-1.1078 0.96401-1.0431 1.0485 2.6868 2.6132 6.0527 5.9472 8.8587 8.4531 0.98528 0.8799 2.0072 1.7051 3.028 2.5302 0.3446 0.27852 0.71118 0.5196 1.0668 0.77938 0.02045 0.023 0.30369-0.30934 0.28317-0.33227z"/>
  <path d="m83.703 195.26c-0.2506-0.0372-0.4992-0.119-0.75181-0.11157-2.8834 0.0847-3.5121 0.35099-6.5836 0.93929-0.06412 0.032 0.33168 1.0704 0.3958 1.0384 0.09531-0.0241 5.2682-1.3472 6.044-1.4778 0.25206-0.0425 0.5093 0.0181 0.76394 0.0272 0.02567 0.0107 0.1574-0.4048 0.13174-0.41547z"/>
  <path d="m71.837 182.04c-0.79257 3.1783-0.25342 1.1194-1.7395 6.1331-0.01675 0.0826 1.0036 0.35392 1.0203 0.2713 0.99292-5.1771 0.65663-3.06 1.1358-6.323 0.0051-0.0337-0.41168-0.11513-0.4167-0.0814z"/>
 </g>
 <g stroke="#000">
  <circle cx="82.013" cy="164.11" r="0" stroke-width=".11418"/>
  <circle cx="82.013" cy="164.11" r="0" stroke-width=".11418"/>
  <ellipse cx="78.421" cy="104.51" rx=".018614" ry=".019558" stroke-width=".15329"/>
  <ellipse cx="78.421" cy="104.51" rx=".018614" ry=".019558" stroke-width=".15329"/>
 </g>
 <g stroke-width=".095368">
  <path d="m86.359 186.77c-2.5673 1.7813-4.9112 3.9301-7.2919 6.011-0.05843 0.0718 0.82837 1.0179 0.8868 0.94613 6.7465-6.5582 0.61853-0.52527 5.9412-5.9399 0.23469-0.23875 0.48464-0.45708 0.72696-0.68562 0.02054-0.0213-0.24253-0.3529-0.26301-0.3316z"/>
  <path d="m48.264 178.47c0.108 0.25167 0.20769 0.50825 0.324 0.75502 1.1196 2.3754 2.4088 4.6308 3.7116 6.878 0.82618 1.4251 2.1397 3.6303 2.9884 5.0602 0.41975 0.70536 0.8395 1.4107 1.2593 2.116 0.02517 0.054 0.6931-0.35348 0.66793-0.40757-0.40067-0.71947-0.80134-1.4389-1.202-2.1584-1.4906-2.5747-2.9847-5.1461-4.5157-7.6898-0.47116-0.78282-0.94918-1.5602-1.4238-2.3403-0.35338-0.56002-0.716-1.1126-1.0602-1.6801-0.13965-0.23029-0.26044-0.47485-0.39065-0.71227-0.01107-0.0291-0.37001 0.1501-0.35895 0.17916z"/>
  <path d="m78.914 208.54c-1.1923-0.84625-2.3846-1.6925-3.5768-2.5388-0.06382-0.0566-0.7633 0.97688-0.69947 1.0335 1.305 0.66301 2.6101 1.326 3.9151 1.989 0.02986 0.0293 0.39112-0.4545 0.36124-0.48375z"/>
  <path d="m92.717 203.87c-5.7152-1.7158-11.504-3.1002-17.272-4.5557-0.12752-0.0644-0.92304 2.0004-0.79553 2.0648 11.179 2.2526 5.2167 1.2341 15.075 2.6129 0.92309 0.1291 1.8449 0.26971 2.7674 0.40456 0.03251 0.0182 0.25777-0.50838 0.22526-0.52661z"/>
  <path d="m73.218 241.58c-0.06821-0.98834-0.10967-1.9796-0.20463-2.965-1.236-12.827-1.0283-9.897-3.3032-24.785-0.03448-0.22706-2.839 0.33106-2.8045 0.55812 10.598 50.346-2.635-12.131 5.2879 24.34 0.20925 0.96321 0.35633 1.9428 0.5345 2.9141 0.0039 0.0395 0.49382-0.0228 0.48997-0.0623z"/>
  <path d="m58.914 234.26c0.20996-0.55274 0.47211-1.0832 0.62987-1.6582 2.3427-8.5395 1.9105-7.952 3.4688-18.087 0.01842-0.17543-2.1484-0.47366-2.1668-0.29823-0.46062 4.7656-1.1834 13.015-1.9068 18.184-0.08334 0.59547-0.2732 1.1649-0.4098 1.7473-0.0069 0.0312 0.37777 0.14309 0.38468 0.11197z"/>
  <path d="m47.234 224.69c1.9914-2.8309 2.7778-3.8576 4.849-7.598 1.48-2.6727 2.7992-5.4579 4.1988-8.1868 0.05553-0.14121-1.6885-1.0404-1.744-0.89922-2.2628 5.0247-4.1468 9.3453-6.5263 14.2-0.37025 0.75532-0.7916 1.4763-1.1874 2.2144-0.01666 0.0332 0.3932 0.30309 0.40987 0.2699z"/>
  <path d="m61.314 175.12c0.01859 0.44883 0.05139 0.89718 0.05576 1.3465 0.01362 1.4035-0.0013 2.8071-0.0019 4.2106 0.02278 2.1959 0.04558 4.3918 0.06837 6.5877 4e-3 0.11613 1.4382 0.0518 1.4343-0.0643-0.28686-4.0365-0.44036-8.1419-1.1857-12.118-0.0024-0.0301-0.37316 7e-3 -0.37087 0.0372z"/>
  <path d="m56.568 76.34c-0.18688 0.50091-0.34947 1.0146-0.56065 1.5027-6.4881 14.995 0.86818-2.8777-7.4664 17.808-0.05459 0.18077 2.1781 1.0648 2.2327 0.88406 2.179-6.6227 4.5429-13.23 6.1916-20.068 0.0077-0.03219-0.38946-0.15907-0.3973-0.1269z"/>
  <path d="m89.951 176.6c-0.29328 0.32919-0.54329 0.71806-0.87984 0.98755-2.0599 1.6494-4.1957 3.171-6.2935 4.7564-2.9507 2.4301-5.9014 4.8602-8.852 7.2903-0.11908 0.14039 1.6149 2.0685 1.734 1.9281 6.7794-6.3177 8.1803-7.2957 13.874-13.606 0.29665-0.32878 0.50257-0.75018 0.75386-1.1253 0.01426-0.0272-0.32214-0.25857-0.33643-0.23133z"/>
  <path d="m84.876 232.82c-0.23354-0.3183-0.49732-0.61047-0.70061-0.95491-0.93549-1.585-1.795-3.2272-2.7117-4.8265-4.298-7.4986-5.5409-9.5177-10.093-17.18-0.07578-0.15451-1.9841 1.0725-1.9083 1.227 1.8803 3.0103 3.7092 6.0636 5.641 9.0309 3.2997 5.0683 5.1818 7.7636 8.6398 12.115 0.24916 0.31354 0.541 0.57888 0.8115 0.86832 0.01736 0.026 0.3384-0.25419 0.3211-0.28019z"/>
  <path d="m43.716 215.12c2.6205-1.3918 5.0463-3.2194 7.4079-5.1112 0.80212-0.64255 1.5831-1.319 2.3747-1.9785 0.0499-0.0559-0.64058-0.86399-0.69048-0.80808-2.3827 1.9333-4.7819 3.8408-7.1589 5.7833-0.53873 0.44024-1.0666 0.89772-1.6051 1.3383-0.18777 0.15362-0.38233 0.29605-0.5735 0.44407-0.02051 0.0199 0.22486 0.35202 0.24538 0.33215z"/>
  <path d="m43.037 195.24c1.3804 0.8787 2.789 1.704 4.2179 2.4742 0.76056 0.40995 1.5323 0.79206 2.2985 1.1881 0.05225 0.0409 0.55782-0.80505 0.50557-0.84598-2.2453-1.1064-4.489-2.2211-6.7879-3.1762-0.02222-0.019-0.25625 0.34089-0.23403 0.35983z"/>
  <path d="m47.377 185.62c0.2274 0.29381 0.45925 0.58319 0.68221 0.88142 4.0169 5.3729 0.92119 1.4088 5.9615 7.6619 0.06474 0.097 1.2631-0.95126 1.1984-1.0483-4.2679-4.6743-2.8063-3.2336-6.7246-7.0156-0.26588-0.25662-0.54027-0.50147-0.8104-0.7522-0.01684-0.0248-0.32394 0.24789-0.3071 0.27275z"/>
 </g>
 <g stroke="#000" stroke-width=".059203px">
  <path d="m91.117 181.87-0.73989 2.0862-2.1678-0.58877 1.8668 1.6861-0.63255 2.3613 1.5015-1.4847 1.8546 1.4306-0.89658-2.3064 1.4806-1.842-2.0108 0.81524z"/>
  <path d="m54.123 235.6-0.73989 2.0862-2.1678-0.58877 1.8668 1.686-0.63255 2.3613 1.5014-1.4847 1.8546 1.4306-0.89658-2.3064 1.4806-1.842-2.0108 0.81524z"/>
  <path d="m97.08 198.52-0.73988 2.0862-2.1678-0.58878 1.8668 1.6861-0.63255 2.3613 1.5015-1.4847 1.8546 1.4306-0.89659-2.3064 1.4806-1.842-2.0108 0.81524z"/>
  <path d="m90.176 211.42-0.73989 2.0862-2.1678-0.58878 1.8668 1.686-0.63255 2.3613 1.5014-1.4847 1.8546 1.4306-0.89658-2.3064 1.4806-1.842-2.0108 0.81525z"/>
  <path d="m40.451 182.69-0.73989 2.0862-2.1678-0.58877 1.8668 1.686-0.63255 2.3613 1.5014-1.4847 1.8547 1.4306-0.89659-2.3064 1.4806-1.842-2.0108 0.81525z"/>
  <path d="m54.992 174.19-0.73989 2.0862-2.1678-0.58877 1.8668 1.686-0.63255 2.3613 1.5014-1.4847 1.8546 1.4306-0.89658-2.3064 1.4806-1.842-2.0108 0.81524z"/>
 </g>
 <g stroke-width=".095368">
  <path d="m126.84 219.54c2.3753-5.7317 0.66403-1.8809 5.7623-11.157 0.0533-0.1364-1.6315-0.99885-1.6848-0.86244-4.0673 9.9119-2.7681 5.8577-4.537 11.868-9e-3 0.0372 0.45017 0.18822 0.4595 0.15101z"/>
  <path d="m116.37 203.86c2.6544-1.781 5.0642-3.9906 7.5086-6.1135 0.0542-0.0658-0.75956-0.94404-0.8138-0.87816-1.1535 1.0978-2.307 2.1955-3.4605 3.2932-0.83924 0.82373-1.6692 1.66-2.5177 2.4712-0.32252 0.30834-0.6631 0.59103-0.99465 0.88653-0.021 0.0225 0.25708 0.36322 0.27812 0.3407z"/>
  <path d="m116.36 194.41c2.3288-0.25359 0.80509-0.0873 4.5711-0.50091 0.0598-0.0271-0.27511-0.99606-0.33494-0.96894-3.6134 0.85903-2.1494 0.51522-4.3906 1.0392-0.0266 0.0125 0.12782 0.44317 0.15442 0.43067z"/>
  <path d="m118.24 185.4c3.3504 2.7546 1.1661 1.0608 6.7368 4.7553 0.0749 0.0648 0.87542-1.1479 0.80053-1.2127-5.9424-3.0236-3.5714-1.623-7.2379-3.9117-0.0228-0.0242-0.32223 0.34483-0.29943 0.36908z"/>
  <path d="m127.31 176.62c0.78558 2.8096 0.24267 0.96821 1.7697 5.467 0.0245 0.0748 0.94865-0.32271 0.9241-0.39754-1.967-4.2744-1.2346-2.518-2.3146-5.2026-8e-3 -0.0307-0.38742 0.10239-0.3792 0.13309z"/>
  <path d="m141.53 169.76c-0.54188 1.7537-1.2047 3.4537-1.7781 5.1933-0.5179 1.571-0.99873 3.1578-1.4981 4.7367-0.0207 0.0855 1.0342 0.42141 1.0549 0.33598 0.42882-1.5965 0.85687-3.1932 1.2864-4.7894 1.1213-4.1666 0.64532-2.2412 1.3797-5.3491 8e-3 -0.0361-0.43697-0.16352-0.44485-0.1275z"/>
  <path d="m158.59 213.69c-0.32274-0.29796-0.65858-0.57822-0.96819-0.89389-0.91096-0.92876-1.7923-1.895-2.6921-2.8379-1.3285-1.3923-2.6508-2.7923-3.9926-4.1677-1.5028-1.5404-3.0272-3.0529-4.5407-4.5793-0.0648-0.0844-1.1078 0.96401-1.0431 1.0485 2.6868 2.6132 6.0527 5.9472 8.8587 8.4531 0.98528 0.8799 2.0072 1.7051 3.028 2.5302 0.3446 0.27852 0.71118 0.5196 1.0668 0.77938 0.0204 0.023 0.30369-0.30934 0.28317-0.33227z"/>
  <path d="m155.46 189.44c-0.2506-0.0372-0.4992-0.119-0.75181-0.11157-2.8834 0.0847-3.5121 0.35099-6.5836 0.93929-0.0641 0.032 0.33167 1.0704 0.3958 1.0384 0.0953-0.0241 5.2682-1.3472 6.044-1.4778 0.25205-0.0425 0.50929 0.0181 0.76393 0.0272 0.0257 0.0107 0.1574-0.4048 0.13174-0.41547z"/>
  <path d="m143.59 176.21c-0.79257 3.1783-0.25342 1.1194-1.7394 6.1331-0.0168 0.0826 1.0036 0.35392 1.0203 0.2713 0.99292-5.1771 0.65663-3.06 1.1358-6.323 5e-3 -0.0337-0.41167-0.11513-0.4167-0.0814z"/>
  <path d="m158.12 180.94c-2.5673 1.7813-4.9112 3.9301-7.2919 6.011-0.0584 0.0718 0.82837 1.0179 0.8868 0.94613 6.7465-6.5582 0.61853-0.52527 5.9412-5.9399 0.23469-0.23875 0.48464-0.45708 0.72696-0.68562 0.0205-0.0213-0.24253-0.3529-0.26301-0.3316z"/>
  <path d="m120.02 172.65c0.108 0.25167 0.2077 0.50825 0.324 0.75502 1.1196 2.3754 2.4088 4.6308 3.7116 6.878 0.82618 1.4251 2.1397 3.6303 2.9884 5.0602 0.41975 0.70536 0.8395 1.4107 1.2593 2.116 0.0252 0.054 0.69309-0.35348 0.66792-0.40757-0.40066-0.71947-0.80133-1.4389-1.202-2.1584-1.4906-2.5747-2.9847-5.1461-4.5157-7.6898-0.47116-0.78282-0.94918-1.5602-1.4238-2.3403-0.35338-0.56002-0.716-1.1126-1.0602-1.6801-0.13966-0.23029-0.26044-0.47485-0.39066-0.71227-0.0111-0.0291-0.37001 0.1501-0.35895 0.17916z"/>
  <path d="m150.67 202.72c-1.1923-0.84625-2.3846-1.6925-3.5768-2.5388-0.0638-0.0566-0.7633 0.97688-0.69947 1.0335 1.305 0.66301 2.61 1.326 3.9151 1.989 0.0299 0.0293 0.39112-0.4545 0.36124-0.48375z"/>
  <path d="m164.47 198.04c-5.7152-1.7158-11.504-3.1002-17.272-4.5557-0.12752-0.0644-0.92304 2.0004-0.79553 2.0648 11.179 2.2526 5.2167 1.2341 15.075 2.6129 0.92309 0.1291 1.8449 0.26971 2.7674 0.40456 0.0325 0.0182 0.25777-0.50838 0.22526-0.52661z"/>
  <path d="m144.98 235.76c-0.0682-0.98834-0.10967-1.9796-0.20463-2.965-1.236-12.827-1.0283-9.897-3.3032-24.785-0.0345-0.22706-2.839 0.33106-2.8045 0.55812 10.598 50.346-2.635-12.131 5.2879 24.34 0.20925 0.96321 0.35633 1.9428 0.5345 2.9141 4e-3 0.0395 0.49382-0.0228 0.48997-0.0623z"/>
  <path d="m130.67 228.43c0.20995-0.55274 0.47211-1.0832 0.62987-1.6582 2.3427-8.5395 1.9105-7.952 3.4688-18.087 0.0184-0.17543-2.1484-0.47366-2.1668-0.29823-0.46061 4.7656-1.1834 13.015-1.9068 18.184-0.0833 0.59547-0.27321 1.1649-0.4098 1.7473-7e-3 0.0312 0.37776 0.14309 0.38468 0.11197z"/>
  <path d="m118.99 218.86c1.9914-2.8309 2.7778-3.8576 4.849-7.598 1.48-2.6727 2.7992-5.4579 4.1988-8.1868 0.0555-0.14121-1.6885-1.0404-1.744-0.89922-2.2628 5.0247-4.1468 9.3453-6.5263 14.2-0.37025 0.75532-0.7916 1.4763-1.1874 2.2144-0.0167 0.0332 0.3932 0.30309 0.40987 0.2699z"/>
  <path d="m134.41 169.99c0.0186 0.44883 0.0514 0.89718 0.0558 1.3465 0.0136 1.4035-1e-3 2.8071-2e-3 4.2106l0.0684 6.5877c4e-3 0.11613 1.4382 0.0518 1.4343-0.0643-0.28687-4.0365-0.44037-8.1419-1.1857-12.118-2e-3 -0.0301-0.37316 7e-3 -0.37087 0.0372z"/>
  <path d="m161.71 170.78c-0.29328 0.32919-0.54328 0.71806-0.87984 0.98755-2.0599 1.6494-4.1957 3.171-6.2936 4.7564-2.9507 2.4301-5.9014 4.8602-8.852 7.2903-0.11907 0.14039 1.6149 2.0685 1.734 1.9281 6.7794-6.3177 8.1803-7.2957 13.874-13.606 0.29666-0.32878 0.50257-0.75018 0.75386-1.1253 0.0143-0.0272-0.32214-0.25857-0.33643-0.23133z"/>
  <path d="m156.63 226.99c-0.23354-0.3183-0.49732-0.61047-0.70061-0.95491-0.93549-1.585-1.795-3.2272-2.7117-4.8265-4.298-7.4986-5.5409-9.5177-10.093-17.18-0.0758-0.15451-1.9841 1.0725-1.9083 1.227 1.8803 3.0103 3.7092 6.0636 5.641 9.0309 3.2997 5.0683 5.1818 7.7636 8.6398 12.115 0.24917 0.31354 0.541 0.57888 0.8115 0.86832 0.0174 0.026 0.3384-0.25419 0.32111-0.28019z"/>
  <path d="m115.47 209.3c2.6205-1.3918 5.0463-3.2194 7.4079-5.1112 0.80212-0.64255 1.5831-1.319 2.3747-1.9785 0.0499-0.0559-0.64058-0.86399-0.69049-0.80808-2.3827 1.9333-4.7819 3.8408-7.1589 5.7833-0.53873 0.44024-1.0666 0.89772-1.6051 1.3383-0.18777 0.15362-0.38234 0.29605-0.5735 0.44407-0.0205 0.0199 0.22486 0.35202 0.24538 0.33215z"/>
  <path d="m114.79 189.42c1.3804 0.8787 2.789 1.704 4.2179 2.4742 0.76056 0.40995 1.5323 0.79206 2.2985 1.1881 0.0523 0.0409 0.55782-0.80505 0.50557-0.84598-2.2453-1.1064-4.489-2.2211-6.7879-3.1762-0.0222-0.019-0.25625 0.34089-0.23403 0.35983z"/>
  <path d="m119.14 179.79c0.22741 0.29381 0.45925 0.58319 0.68222 0.88142 4.0169 5.3729 0.92119 1.4088 5.9615 7.6619 0.0647 0.097 1.2632-0.95126 1.1984-1.0483-4.2679-4.6743-2.8063-3.2336-6.7246-7.0156-0.26588-0.25662-0.54027-0.50147-0.8104-0.7522-0.0168-0.0248-0.32394 0.24789-0.3071 0.27275z"/>
 </g>
 <g stroke="#000" stroke-width=".059203px">
  <path d="m162.87 176.04-0.73989 2.0862-2.1678-0.58877 1.8668 1.6861-0.63255 2.3613 1.5014-1.4847 1.8546 1.4306-0.89658-2.3064 1.4806-1.842-2.0108 0.81524z"/>
  <path d="m125.88 229.77-0.73989 2.0862-2.1678-0.58877 1.8668 1.686-0.63255 2.3613 1.5014-1.4847 1.8546 1.4306-0.89659-2.3064 1.4806-1.842-2.0108 0.81524z"/>
  <path d="m168.84 192.7-0.73988 2.0862-2.1678-0.58878 1.8668 1.6861-0.63255 2.3613 1.5015-1.4847 1.8546 1.4306-0.89659-2.3064 1.4806-1.842-2.0108 0.81524z"/>
  <path d="m161.93 205.59-0.73989 2.0862-2.1678-0.58878 1.8668 1.686-0.63256 2.3613 1.5014-1.4847 1.8546 1.4306-0.89658-2.3064 1.4806-1.842-2.0108 0.81525z"/>
  <path d="m112.21 176.86-0.73989 2.0862-2.1678-0.58877 1.8668 1.686-0.63255 2.3613 1.5014-1.4847 1.8547 1.4306-0.89659-2.3064 1.4806-1.842-2.0108 0.81525z"/>
  <path d="m128.09 169.05-0.73989 2.0862-2.1678-0.58877 1.8668 1.686-0.63255 2.3613 1.5014-1.4847 1.8546 1.4306-0.89658-2.3064 1.4806-1.842-2.0108 0.81524z"/>
 </g>
 <g stroke-width=".095368">
  <path d="m92.784 104.76c2.3753-5.7317 0.66404-1.8809 5.7623-11.157 0.0533-0.13641-1.6315-0.99886-1.6848-0.86245-4.0673 9.9119-2.7681 5.8577-4.537 11.868-9e-3 0.0372 0.45018 0.18822 0.4595 0.15102z"/>
  <path d="m82.318 89.076c2.6544-1.7809 5.0642-3.9905 7.5086-6.1135 0.0543-0.0658-0.75956-0.94404-0.81379-0.87815-1.1535 1.0978-2.307 2.1955-3.4605 3.2932-0.83924 0.82373-1.6692 1.66-2.5177 2.4712-0.32253 0.30833-0.6631 0.59102-0.99465 0.88652-0.021 0.0225 0.25708 0.36322 0.27812 0.3407z"/>
  <path d="m82.3 79.631c2.3288-0.25359 0.80509-0.0873 4.5711-0.50091 0.0598-0.0271-0.2751-0.99605-0.33494-0.96894-3.6134 0.85903-2.1494 0.51523-4.3906 1.0392-0.0266 0.0125 0.12782 0.44316 0.15441 0.43066z"/>
  <path d="m84.185 70.617c3.3504 2.7546 1.1661 1.0608 6.7368 4.7553 0.0749 0.0648 0.87542-1.1479 0.80053-1.2127-5.9424-3.0236-3.5714-1.623-7.2379-3.9117-0.0228-0.0242-0.32222 0.34484-0.29942 0.36909z"/>
  <path d="m93.258 61.831c0.78559 2.8096 0.24268 0.9682 1.7697 5.467 0.0245 0.0748 0.94865-0.32271 0.9241-0.39753-1.967-4.2744-1.2346-2.518-2.3146-5.2026-8e-3 -0.0306-0.38742 0.10238-0.37921 0.13308z"/>
  <path d="m106.13 54.289c-0.54189 1.7537-1.2047 3.4537-1.7781 5.1933-0.5179 1.571-0.99873 3.1578-1.4981 4.7367-0.0208 0.0855 1.0342 0.4214 1.0549 0.33598 0.42881-1.5965 0.85687-3.1932 1.2864-4.7895 1.1212-4.1666 0.64532-2.2412 1.3797-5.3491 8e-3 -0.036-0.43697-0.16352-0.44484-0.1275z"/>
  <path d="m124.53 98.907c-0.32273-0.29796-0.65857-0.57822-0.96819-0.89389-0.91095-0.92877-1.7923-1.895-2.692-2.8379-1.3285-1.3923-2.6508-2.7923-3.9926-4.1677-1.5028-1.5404-3.0272-3.0529-4.5407-4.5793-0.0648-0.0844-1.1078 0.96401-1.0431 1.0485 2.6868 2.6132 6.0527 5.9471 8.8587 8.4531 0.98528 0.87989 2.0072 1.7051 3.028 2.5302 0.34461 0.27853 0.71118 0.5196 1.0668 0.77939 0.0205 0.0229 0.30368-0.30935 0.28316-0.33227z"/>
  <path d="m121.4 74.651c-0.2506-0.0372-0.4992-0.11899-0.75181-0.11156-2.8834 0.0847-3.5121 0.35098-6.5836 0.93929-0.0641 0.032 0.33168 1.0704 0.39581 1.0384 0.0953-0.0241 5.2682-1.3472 6.044-1.4778 0.25205-0.0425 0.50929 0.0181 0.76394 0.0272 0.0257 0.0107 0.15739-0.4048 0.13173-0.41547z"/>
  <path d="m109.54 61.43c-0.79257 3.1783-0.25342 1.1194-1.7394 6.1331-0.0168 0.0826 1.0036 0.35392 1.0203 0.27131 0.99293-5.1771 0.65663-3.0601 1.1358-6.323 5e-3 -0.0337-0.41167-0.11513-0.4167-0.0814z"/>
 </g>
 <circle cx="153.29" cy="164.98" r="0" stroke="#000" stroke-width=".11418"/>
 <circle cx="153.29" cy="164.98" r="0" stroke="#000" stroke-width=".11418"/>
 <g stroke-width=".095368">
  <path d="m124.06 66.158c-2.5673 1.7813-4.9112 3.9302-7.292 6.011-0.0584 0.0718 0.82837 1.0179 0.88681 0.94613 6.7465-6.5582 0.61852-0.52528 5.9412-5.9399 0.23469-0.23875 0.48464-0.45708 0.72696-0.68562 0.0205-0.0213-0.24253-0.3529-0.26301-0.3316z"/>
  <path d="m85.965 57.862c0.108 0.25168 0.20769 0.50827 0.324 0.75504 1.1196 2.3754 2.4088 4.6308 3.7116 6.878 0.82618 1.4251 2.1397 3.6303 2.9884 5.0602 0.41975 0.70535 0.8395 1.4107 1.2592 2.116 0.0252 0.054 0.6931-0.35349 0.66793-0.40757-0.40066-0.71947-0.80134-1.4389-1.202-2.1584-1.4906-2.5747-2.9847-5.1461-4.5157-7.6898-0.47117-0.78283-0.94918-1.5602-1.4238-2.3403-0.35338-0.56003-0.71599-1.1126-1.0602-1.6801-0.13965-0.23029-0.26043-0.47485-0.39065-0.71227-0.0111-0.0291-0.37001 0.15009-0.35895 0.17915z"/>
  <path d="m116.62 87.933c-1.1923-0.84626-2.3846-1.6925-3.5769-2.5388-0.0638-0.0566-0.76329 0.97689-0.69946 1.0335 1.305 0.663 2.61 1.326 3.9151 1.989 0.0298 0.0293 0.39112-0.4545 0.36125-0.48374z"/>
  <path d="m130.42 83.256c-5.7153-1.7158-11.504-3.1002-17.272-4.5557-0.12752-0.0644-0.92305 2.0004-0.79553 2.0648 11.179 2.2526 5.2167 1.2341 15.075 2.6129 0.92308 0.12911 1.8449 0.26971 2.7674 0.40456 0.0325 0.0182 0.25777-0.50837 0.22526-0.52661z"/>
  <path d="m110.92 120.97c-0.0682-0.98834-0.10967-1.9796-0.20463-2.965-1.236-12.827-1.0283-9.897-3.3032-24.785-0.0345-0.22706-2.839 0.33106-2.8045 0.55812 10.598 50.346-2.635-12.131 5.2879 24.34 0.20925 0.96321 0.35633 1.9428 0.5345 2.9141 4e-3 0.0396 0.49381-0.0228 0.48997-0.0623z"/>
  <path d="m96.615 113.64c0.20995-0.55275 0.4721-1.0832 0.62987-1.6582 2.3427-8.5395 1.9105-7.952 3.4688-18.087 0.0184-0.17543-2.1484-0.47366-2.1668-0.29823-0.46061 4.7656-1.1834 13.015-1.9068 18.184-0.0833 0.59547-0.2732 1.1649-0.4098 1.7473-7e-3 0.0312 0.37777 0.14309 0.38469 0.11196z"/>
  <path d="m84.935 104.08c1.9914-2.8309 2.7778-3.8576 4.8491-7.598 1.48-2.6728 2.7992-5.4579 4.1988-8.1868 0.0556-0.1412-1.6885-1.0404-1.744-0.89922-2.2628 5.0247-4.1468 9.3453-6.5263 14.2-0.37025 0.75533-0.7916 1.4763-1.1874 2.2144-0.0167 0.0332 0.3932 0.3031 0.40987 0.26991z"/>
  <path d="m99.015 54.511c0.0186 0.44883 0.0514 0.89718 0.0557 1.3465 0.0136 1.4034-2e-3 2.8071-2e-3 4.2106 0.0228 2.1959 0.0456 4.3918 0.0684 6.5876 4e-3 0.11614 1.4382 0.0518 1.4343-0.0643-0.28686-4.0365-0.44036-8.1419-1.1857-12.118-2e-3 -0.0301-0.37316 7e-3 -0.37086 0.0372z"/>
  <path d="m75.892 167.98c-0.18689 0.50091-0.34947 1.0146-0.56065 1.5027-6.4881 14.995 0.86818-2.8777-7.4664 17.808-0.05459 0.18077 2.1781 1.0648 2.2327 0.88406 2.179-6.6227 4.5429-13.23 6.1916-20.068 0.0081-0.0322-0.38946-0.15907-0.39729-0.1269z"/>
  <path d="m127.65 55.992c-0.29328 0.32918-0.54329 0.71806-0.87984 0.98755-2.0599 1.6494-4.1957 3.171-6.2936 4.7564-2.9507 2.4301-5.9014 4.8602-8.852 7.2903-0.11908 0.14039 1.6149 2.0685 1.734 1.9282 6.7794-6.3178 8.1804-7.2957 13.874-13.606 0.29665-0.32878 0.50256-0.75018 0.75386-1.1253 0.0143-0.0272-0.32215-0.25856-0.33643-0.23133z"/>
  <path d="m122.58 112.21c-0.23354-0.3183-0.49732-0.61047-0.70061-0.95491-0.93549-1.585-1.795-3.2272-2.7117-4.8265-4.298-7.4986-5.5409-9.5177-10.093-17.18-0.0758-0.15451-1.9841 1.0725-1.9083 1.227 1.8803 3.0103 3.7092 6.0636 5.641 9.0309 3.2997 5.0683 5.1818 7.7636 8.6398 12.115 0.24917 0.31354 0.541 0.57888 0.8115 0.86832 0.0174 0.026 0.3384-0.25419 0.32111-0.28019z"/>
  <path d="m81.417 94.512c2.6206-1.3918 5.0463-3.2194 7.408-5.1112 0.80212-0.64255 1.5831-1.319 2.3747-1.9785 0.0499-0.0559-0.64058-0.864-0.69048-0.80809-2.3827 1.9333-4.7819 3.8409-7.1589 5.7833-0.53873 0.44024-1.0666 0.89773-1.6051 1.3383-0.18778 0.15362-0.38234 0.29605-0.57351 0.44407-0.0205 0.0199 0.22487 0.35201 0.24538 0.33215z"/>
  <path d="m80.738 74.632c1.3804 0.87871 2.789 1.704 4.2179 2.4742 0.76056 0.40996 1.5323 0.79207 2.2985 1.1881 0.0522 0.0409 0.55781-0.80504 0.50557-0.84598-2.2454-1.1064-4.489-2.2211-6.7879-3.1762-0.0222-0.019-0.25626 0.3409-0.23404 0.35983z"/>
  <path d="m85.078 65.004c0.2274 0.29382 0.45925 0.58319 0.68221 0.88142 4.0169 5.3729 0.9212 1.4088 5.9615 7.6619 0.0648 0.097 1.2631-0.95125 1.1984-1.0483-4.2679-4.6743-2.8063-3.2336-6.7246-7.0156-0.26587-0.25663-0.54026-0.50148-0.81039-0.75221-0.0169-0.0248-0.32394 0.2479-0.3071 0.27275z"/>
 </g>
 <g stroke="#000" stroke-width=".059203px">
  <path d="m128.82 61.259-0.73989 2.0862-2.1678-0.58878 1.8668 1.6861-0.63255 2.3613 1.5015-1.4847 1.8546 1.4306-0.89658-2.3064 1.4806-1.842-2.0108 0.81525z"/>
  <path d="m91.824 114.99-0.73989 2.0862-2.1678-0.58878 1.8668 1.686-0.63255 2.3613 1.5014-1.4847 1.8546 1.4306-0.89658-2.3064 1.4806-1.842-2.0108 0.81524z"/>
  <path d="m134.78 77.913-0.73989 2.0862-2.1678-0.58877 1.8668 1.686-0.63255 2.3613 1.5014-1.4847 1.8546 1.4306-0.89658-2.3064 1.4806-1.842-2.0108 0.81524z"/>
  <path d="m127.88 90.809-0.7399 2.0862-2.1678-0.58878 1.8668 1.6861-0.63255 2.3613 1.5014-1.4847 1.8546 1.4306-0.89658-2.3064 1.4806-1.842-2.0108 0.81524z"/>
  <path d="m78.152 62.077-0.73989 2.0862-2.1678-0.58877 1.8668 1.686-0.63254 2.3613 1.5014-1.4847 1.8546 1.4306-0.89659-2.3064 1.4806-1.842-2.0108 0.81524z"/>
  <path d="m92.693 53.574-0.73988 2.0862-2.1678-0.58877 1.8668 1.686-0.63256 2.3613 1.5014-1.4847 1.8546 1.4306-0.89658-2.3064 1.4806-1.842-2.0108 0.81524z"/>
 </g>
 <path d="m167.11 83.575c-0.18689 0.50092-0.34948 1.0147-0.56065 1.5028-6.4881 14.995 0.86818-2.8777-7.4664 17.808-0.0546 0.18077 2.1781 1.0648 2.2327 0.88406 2.179-6.6227 4.5429-13.23 6.1916-20.068 8e-3 -0.0322-0.38946-0.15907-0.39729-0.12691z" stroke-width=".095368"/>
 <ellipse cx="133.59" cy="142.84" rx=".018614" ry=".019558" stroke="#000" stroke-width=".15329"/>
 <ellipse cx="133.59" cy="142.84" rx=".018614" ry=".019558" stroke="#000" stroke-width=".15329"/>
 <g stroke-width=".095368">
  <path d="m147.96 143.09c2.3753-5.7317 0.66404-1.8809 5.7623-11.157 0.0533-0.13641-1.6315-0.99886-1.6848-0.86245-4.0673 9.9119-2.7681 5.8577-4.537 11.868-9e-3 0.0372 0.45018 0.18822 0.4595 0.15102z"/>
  <path d="m137.49 127.41c2.6544-1.7809 5.0642-3.9905 7.5086-6.1135 0.0543-0.0658-0.75956-0.94404-0.81379-0.87815-1.1535 1.0978-2.307 2.1955-3.4605 3.2932-0.83924 0.82373-1.6692 1.66-2.5177 2.4712-0.32253 0.30833-0.6631 0.59101-0.99465 0.88652-0.021 0.0225 0.25708 0.36322 0.27812 0.3407z"/>
  <path d="m137.47 117.96c2.3288-0.25359 0.80509-0.0873 4.5711-0.50091 0.0598-0.0271-0.2751-0.99605-0.33494-0.96894-3.6134 0.85903-2.1494 0.51523-4.3906 1.0392-0.0266 0.0125 0.12782 0.44316 0.15441 0.43066z"/>
  <path d="m139.36 108.95c3.3504 2.7546 1.1661 1.0608 6.7368 4.7553 0.0749 0.0648 0.87542-1.1479 0.80053-1.2127-5.9424-3.0236-3.5714-1.623-7.2379-3.9117-0.0228-0.0242-0.32222 0.34484-0.29942 0.36909z"/>
  <path d="m148.43 100.16c0.78559 2.8096 0.24268 0.9682 1.7697 5.467 0.0245 0.0748 0.94865-0.32271 0.9241-0.39753-1.967-4.2744-1.2346-2.518-2.3146-5.2026-8e-3 -0.0306-0.38742 0.10238-0.37921 0.13308z"/>
  <path d="m161.3 92.62c-0.54189 1.7537-1.2047 3.4537-1.7781 5.1933-0.5179 1.571-0.99873 3.1578-1.4981 4.7367-0.0208 0.0855 1.0342 0.4214 1.0549 0.33598 0.42881-1.5965 0.85687-3.1932 1.2864-4.7895 1.1212-4.1666 0.64532-2.2412 1.3797-5.3491 8e-3 -0.036-0.43697-0.16352-0.44484-0.1275z"/>
  <path d="m179.7 137.24c-0.32273-0.29796-0.65857-0.57822-0.96819-0.89389-0.91095-0.92877-1.7923-1.895-2.692-2.8379-1.3285-1.3923-2.6508-2.7923-3.9926-4.1677-1.5028-1.5404-3.0272-3.0529-4.5407-4.5793-0.0648-0.0844-1.1078 0.96401-1.0431 1.0485 2.6868 2.6132 6.0527 5.9471 8.8587 8.4531 0.98528 0.87989 2.0072 1.7051 3.028 2.5302 0.34461 0.27853 0.71118 0.5196 1.0668 0.77939 0.0205 0.0229 0.30368-0.30935 0.28316-0.33227z"/>
  <path d="m176.58 112.98c-0.2506-0.0372-0.4992-0.11899-0.75181-0.11156-2.8834 0.0847-3.5121 0.35098-6.5836 0.93929-0.0641 0.032 0.33168 1.0704 0.39581 1.0384 0.0953-0.0241 5.2682-1.3472 6.044-1.4778 0.25205-0.0425 0.50929 0.0181 0.76394 0.0272 0.0257 0.0107 0.15739-0.4048 0.13173-0.41547z"/>
  <path d="m164.71 99.76c-0.79257 3.1783-0.25342 1.1194-1.7394 6.1331-0.0168 0.0826 1.0036 0.35392 1.0203 0.27131 0.99293-5.1771 0.65663-3.0601 1.1358-6.323 5e-3 -0.0337-0.41167-0.11513-0.4167-0.0814z"/>
  <path d="m179.23 104.49c-2.5673 1.7813-4.9112 3.9302-7.292 6.011-0.0584 0.0718 0.82837 1.0179 0.88681 0.94613 6.7465-6.5582 0.61852-0.52528 5.9412-5.9399 0.23469-0.23875 0.48464-0.45708 0.72696-0.68562 0.0205-0.0213-0.24253-0.3529-0.26301-0.3316z"/>
  <path d="m141.14 96.192c0.108 0.25168 0.20769 0.50827 0.324 0.75504 1.1196 2.3754 2.4088 4.6307 3.7116 6.878 0.82618 1.4251 2.1397 3.6303 2.9884 5.0602 0.41975 0.70535 0.8395 1.4107 1.2592 2.116 0.0252 0.054 0.6931-0.35349 0.66793-0.40757-0.40066-0.71947-0.80134-1.4389-1.202-2.1584-1.4906-2.5747-2.9847-5.1461-4.5157-7.6898-0.47117-0.78283-0.94918-1.5602-1.4238-2.3403-0.35338-0.56003-0.71599-1.1126-1.0602-1.6801-0.13965-0.23029-0.26043-0.47485-0.39065-0.71227-0.0111-0.0291-0.37001 0.15009-0.35895 0.17915z"/>
  <path d="m171.79 126.26c-1.1923-0.84626-2.3846-1.6925-3.5769-2.5388-0.0638-0.0566-0.76329 0.97689-0.69946 1.0335 1.305 0.663 2.61 1.326 3.9151 1.989 0.0298 0.0293 0.39112-0.45449 0.36125-0.48374z"/>
  <path d="m185.59 121.59c-5.7153-1.7158-11.504-3.1002-17.272-4.5557-0.12752-0.0644-0.92305 2.0004-0.79553 2.0648 11.179 2.2526 5.2167 1.2341 15.075 2.6129 0.92308 0.12911 1.8449 0.26971 2.7674 0.40456 0.0325 0.0182 0.25777-0.50837 0.22526-0.52661z"/>
  <path d="m166.09 159.3c-0.0682-0.98834-0.10967-1.9796-0.20463-2.965-1.236-12.827-1.0283-9.897-3.3032-24.785-0.0345-0.22706-2.839 0.33106-2.8045 0.55812 10.598 50.346-2.635-12.131 5.2879 24.34 0.20925 0.96321 0.35633 1.9428 0.5345 2.9141 4e-3 0.0396 0.49381-0.0228 0.48997-0.0623z"/>
  <path d="m151.79 151.97c0.20995-0.55275 0.4721-1.0832 0.62987-1.6582 2.3427-8.5395 1.9105-7.952 3.4688-18.087 0.0184-0.17543-2.1484-0.47366-2.1668-0.29823-0.46061 4.7656-1.1834 13.015-1.9068 18.184-0.0833 0.59547-0.2732 1.1649-0.4098 1.7473-7e-3 0.0312 0.37777 0.14309 0.38469 0.11196z"/>
  <path d="m140.11 142.41c1.9914-2.8309 2.7778-3.8576 4.849-7.598 1.48-2.6728 2.7992-5.4579 4.1988-8.1868 0.0556-0.14119-1.6885-1.0404-1.744-0.89921-2.2628 5.0247-4.1468 9.3453-6.5263 14.2-0.37025 0.75533-0.7916 1.4763-1.1874 2.2144-0.0167 0.0332 0.3932 0.3031 0.40987 0.26991z"/>
  <path d="m154.19 92.841c0.0186 0.44883 0.0514 0.89718 0.0557 1.3465 0.0136 1.4034-2e-3 2.8071-2e-3 4.2106 0.0228 2.1959 0.0456 4.3918 0.0684 6.5876 4e-3 0.11614 1.4382 0.0518 1.4343-0.0643-0.28686-4.0365-0.44036-8.1419-1.1857-12.118-2e-3 -0.0301-0.37316 7e-3 -0.37086 0.0372z"/>
  <path d="m182.82 94.322c-0.29328 0.32918-0.54329 0.71806-0.87984 0.98755-2.0599 1.6494-4.1957 3.171-6.2936 4.7564-2.9507 2.4301-5.9014 4.8602-8.852 7.2903-0.11908 0.14039 1.6149 2.0685 1.734 1.9282 6.7794-6.3178 8.1804-7.2957 13.874-13.606 0.29665-0.32878 0.50256-0.75018 0.75386-1.1253 0.0143-0.0272-0.32215-0.25856-0.33643-0.23133z"/>
  <path d="m177.75 150.54c-0.23354-0.3183-0.49732-0.61047-0.70061-0.95491-0.93549-1.585-1.795-3.2272-2.7117-4.8265-4.298-7.4986-5.5409-9.5177-10.093-17.18-0.0758-0.15451-1.9841 1.0725-1.9083 1.227 1.8803 3.0103 3.7092 6.0636 5.641 9.0309 3.2997 5.0683 5.1818 7.7636 8.6398 12.115 0.24917 0.31354 0.541 0.57888 0.8115 0.86832 0.0174 0.026 0.3384-0.25419 0.32111-0.28019z"/>
  <path d="m136.59 132.84c2.6206-1.3918 5.0463-3.2194 7.408-5.1112 0.80212-0.64255 1.5831-1.319 2.3747-1.9784 0.0499-0.0559-0.64058-0.864-0.69048-0.80809-2.3827 1.9333-4.7819 3.8408-7.1589 5.7832-0.53873 0.44024-1.0666 0.89773-1.6051 1.3383-0.18778 0.15362-0.38234 0.29605-0.57351 0.44407-0.0205 0.0199 0.22487 0.35201 0.24538 0.33215z"/>
  <path d="m135.91 112.96c1.3804 0.87871 2.789 1.704 4.2179 2.4742 0.76056 0.40996 1.5323 0.79207 2.2985 1.1881 0.0522 0.0409 0.55781-0.80504 0.50557-0.84598-2.2454-1.1064-4.489-2.2211-6.7879-3.1762-0.0222-0.019-0.25626 0.3409-0.23404 0.35983z"/>
  <path d="m140.25 103.33c0.2274 0.29382 0.45925 0.58319 0.68221 0.88142 4.0169 5.3729 0.9212 1.4088 5.9615 7.6619 0.0648 0.097 1.2631-0.95125 1.1984-1.0483-4.2679-4.6743-2.8063-3.2336-6.7246-7.0156-0.26587-0.25663-0.54026-0.50148-0.81039-0.75221-0.0169-0.0248-0.32394 0.2479-0.3071 0.27275z"/>
 </g>
 <g stroke="#000" stroke-width=".059203px">
  <path d="m183.99 99.59-0.73989 2.0862-2.1678-0.58878 1.8668 1.6861-0.63255 2.3613 1.5015-1.4847 1.8546 1.4306-0.89658-2.3064 1.4806-1.842-2.0108 0.81525z"/>
  <path d="m150.06 165.04-0.73989 2.0862-2.1678-0.58878 1.8668 1.686-0.63255 2.3613 1.5014-1.4847 1.8546 1.4306-0.89658-2.3064 1.4806-1.842-2.0108 0.81524z"/>
  <path d="m189.95 116.24-0.73989 2.0862-2.1678-0.58877 1.8668 1.686-0.63255 2.3613 1.5014-1.4847 1.8546 1.4306-0.89658-2.3064 1.4806-1.842-2.0108 0.81524z"/>
  <path d="m183.05 129.14-0.7399 2.0862-2.1678-0.58878 1.8668 1.6861-0.63255 2.3613 1.5014-1.4847 1.8546 1.4306-0.89658-2.3064 1.4806-1.842-2.0108 0.81524z"/>
  <path d="m133.32 100.41-0.73989 2.0862-2.1678-0.58877 1.8668 1.686-0.63254 2.3613 1.5014-1.4847 1.8546 1.4306-0.89659-2.3064 1.4806-1.842-2.0108 0.81524z"/>
  <path d="m147.86 91.904-0.73988 2.0862-2.1678-0.58877 1.8668 1.686-0.63256 2.3613 1.5014-1.4847 1.8546 1.4306-0.89658-2.3064 1.4806-1.842-2.0108 0.81524z"/>
 </g>
 <g transform="scale(.94275 1.0607)" stroke-width=".90922" aria-label="5">
  <path d="m48.245 19.398q0.21821-0.94558-0.18184-2.073v0.03637q-0.40006-1.4547-1.5275-1.4547h-0.03637q-0.07274 0-0.18184 0-0.07274 0-0.25458 0.07274h0.03637-0.07274l-2.6549 0.43642q-0.72737 0.10911-1.0911 0.14547-0.36369 0-0.54553 0h-3.0186q0.03637 0-0.32732 0.03637t-0.5819 0.07274-0.47279 0.07274q-0.21821 0-0.32732 0-0.32732 0.03637-0.83648 0.07274-0.50916 0-1.1638 0h-0.98195q-0.29095 0-0.65464 0-0.32732 0-0.72737-0.03637-0.32732 0-0.65464 0-0.32732-0.03637-0.61827-0.03637h-0.90922q-0.76374 0-1.7457 0.65464-0.43642 0.40006-0.80011 0.72737-0.32732 0.32732-0.5819 0.61827-0.07274 0.10911-0.18184 0.29095-0.07274 0.18184-0.14548 0.32732l0.07274-0.07274q-0.18184 0.36369-0.29095 0.5819-0.07274 0.18184-0.14548 0.32732-0.21821 0.43642-0.40005 0.76374-0.18184 0.29095-0.36369 0.5819-0.03637 0.07274-0.07274 0.14548 0 0.03637-0.03637 0.07274-2.364 4.0733-2.5822 5.2371-0.40005 1.7457 0.10911 2.4367 0.54553 0.65464 2.2912 0.65464h0.21821q0.21821 0 0.40006-0.03637t0.40006-0.21821l-0.47279 0.21821h0.14547l4.8734-0.29095 2.5458-0.10911q2.2912 0 3.6732 0.72737h-0.03637q1.4911 0.80011 1.0547 2.8004-0.47279 2.4003-3.5641 4.0369-1.382 0.76374-2.764 1.1274-1.382 0.32732-2.8368 0.32732-1.7457 0-3.4186-0.83648h0.03637l-1.0547-0.65464q-0.29095-0.10911-0.43642-0.18184-0.10911-0.10911-0.29095-0.18184-0.65464-0.47279-1.2002-0.65464-0.54553-0.21821-0.90922-0.21821h-0.54553q-0.32732 0-0.47279 0.07274-0.691 0.1091-1.6366 1.0547-0.98195 0.83648-1.0911 1.5275-0.54553 2.4367 3.746 4.5461 3.5278 1.7457 6.0736 1.7457 2.4731 0 4.8734-0.61827 2.4003-0.65464 4.6916-1.9639 2.7276-1.4911 4.3279-3.455 1.6366-2.0003 2.1457-4.4733 0.29095-1.4184 0.25458-2.6913 0-1.2729-0.29095-2.5458-0.83648-2.7276-2.9459-3.9278l0.07274 0.03637q-0.47279-0.36369-1.1638-0.61827t-1.6002-0.43642q-0.14548 0-0.21821-0.03637-0.14547-0.03637-0.36369-0.07274-0.21821-0.07274-0.43642-0.18184h0.03637q-0.36369-0.14547-0.72737-0.18184-0.32732-0.07274-0.5819-0.07274h-4.9461q0.18184-0.80011 1.4547-0.80011 0.18184 0 0.43642 0.03637 0.25458 0 0.54553 0.03637t0.54553 0.03637q0.29095 0 0.47279 0 0.65464 0 1.2729-0.03637 0.61827-0.07274 1.2729-0.25458l-0.03637 0.07274q0.18184 0 0.32732 0 0.18184-0.03637 0.36369-0.03637 0.65464-0.03637 1.2002-0.03637t0.83648-0.07274h-0.03637q0.07274 0 0.10911 0 0.07274-0.03637 0.14547-0.03637 1.382-0.10911 2.1821-0.14547 0.83648-0.03637 1.1274-0.10911 0.25458-0.07274 0.47279-0.10911 0.25458-0.07274 0.43642-0.14547 0.61827-0.18184 0.98195-0.25458 0.40005-0.1091 0.94558-0.29095 0.29095-0.25458 0.40006-0.36369 0.10911-0.14548 0.29095-0.21821 0.07274-0.07274 0.14547-0.10911 0.07274-0.03637 0.14548-0.10911 0.94558-0.76374 1.0547-1.3093z"/>
  <path d="m203.17 19.995q0.21821-0.94558-0.18184-2.073v0.03637q-0.40006-1.4547-1.5275-1.4547h-0.0364q-0.0727 0-0.18185 0-0.0727 0-0.25458 0.07274h0.0364-0.0727l-2.6549 0.43642q-0.72737 0.10911-1.0911 0.14548-0.36369 0-0.54553 0h-3.0186q0.0364 0-0.32732 0.03637-0.36369 0.03637-0.5819 0.07274t-0.47279 0.07274q-0.21821 0-0.32732 0-0.32731 0.03637-0.83647 0.07274-0.50916 0-1.1638 0h-0.98195q-0.29095 0-0.65464 0-0.32731 0-0.72737-0.03637-0.32732 0-0.65463 0-0.32732-0.03637-0.61827-0.03637h-0.90921q-0.76374 0-1.7457 0.65463-0.43642 0.40006-0.80011 0.72737-0.32731 0.32732-0.58189 0.61827-0.0727 0.10911-0.18185 0.29095-0.0727 0.18184-0.14547 0.32732l0.0727-0.07274q-0.18185 0.36369-0.29095 0.5819-0.0727 0.18184-0.14548 0.32732-0.21821 0.43642-0.40005 0.76374-0.18184 0.29095-0.36369 0.5819-0.0364 0.07274-0.0727 0.14547 0 0.03637-0.0364 0.07274-2.364 4.0733-2.5822 5.2371-0.40006 1.7457 0.1091 2.4367 0.54553 0.65463 2.2912 0.65463h0.21822q0.21821 0 0.40005-0.03637t0.40005-0.21821l-0.47279 0.21821h0.14548l4.8734-0.29095 2.5458-0.10911q2.2912 0 3.6732 0.72737h-0.0364q1.4911 0.80011 1.0547 2.8004-0.47279 2.4003-3.5641 4.0369-1.382 0.76374-2.764 1.1274-1.382 0.32732-2.8368 0.32732-1.7457 0-3.4186-0.83648h0.0364l-1.0547-0.65464q-0.29094-0.10911-0.43642-0.18184-0.1091-0.10911-0.29095-0.18184-0.65463-0.47279-1.2002-0.65464-0.54553-0.21821-0.90922-0.21821h-0.54553q-0.32731 0-0.47279 0.07274-0.691 0.10911-1.6366 1.0547-0.98196 0.83648-1.0911 1.5275-0.54553 2.4367 3.746 4.5461 3.5278 1.7457 6.0736 1.7457 2.4731 0 4.8734-0.61827 2.4003-0.65464 4.6916-1.9639 2.7276-1.4911 4.3279-3.455 1.6366-2.0003 2.1458-4.4733 0.29095-1.4184 0.25458-2.6913 0-1.2729-0.29095-2.5458-0.83647-2.7276-2.9458-3.9278l0.0727 0.03637q-0.47279-0.36369-1.1638-0.61827-0.691-0.25458-1.6002-0.43642-0.14547 0-0.21821-0.03637-0.14548-0.03637-0.36369-0.07274-0.21821-0.07274-0.43642-0.18184h0.0364q-0.36369-0.14548-0.72737-0.18184-0.32732-0.07274-0.5819-0.07274h-4.9461q0.18184-0.80011 1.4547-0.80011 0.18185 0 0.43643 0.03637 0.25458 0 0.54553 0.03637 0.29094 0.03637 0.54552 0.03637 0.29095 0 0.4728 0 0.65463 0 1.2729-0.03637 0.61826-0.07274 1.2729-0.25458l-0.0364 0.07274q0.18184 0 0.32732 0 0.18184-0.03637 0.36368-0.03637 0.65464-0.03637 1.2002-0.03637t0.83647-0.07274h-0.0364q0.0727 0 0.1091 0 0.0727-0.03637 0.14548-0.03637 1.382-0.1091 2.1821-0.14547 0.83648-0.03637 1.1274-0.10911 0.25458-0.07274 0.47279-0.10911 0.25458-0.07274 0.43642-0.14547 0.61827-0.18184 0.98196-0.25458 0.40005-0.10911 0.94558-0.29095 0.29095-0.25458 0.40005-0.36369 0.10911-0.14547 0.29095-0.21821 0.0727-0.07274 0.14548-0.1091 0.0727-0.03637 0.14547-0.10911 0.94558-0.76374 1.0547-1.3093z"/>
  <path d="m47.763 238.36q0.21821-0.94558-0.18184-2.073v0.0364q-0.40005-1.4548-1.5275-1.4548h-0.03637q-0.07274 0-0.18184 0-0.07274 0-0.25458 0.0727h0.03637-0.07274l-2.6549 0.43642q-0.72737 0.10911-1.0911 0.14548-0.36369 0-0.54553 0h-3.0186q0.03637 0-0.32732 0.0364t-0.5819 0.0727q-0.21821 0.0364-0.47279 0.0727-0.21821 0-0.32732 0-0.32732 0.0364-0.83648 0.0727-0.50916 0-1.1638 0h-0.98195q-0.29095 0-0.65464 0-0.32732 0-0.72737-0.0364-0.32732 0-0.65464 0-0.32732-0.0364-0.61827-0.0364h-0.90922q-0.76374 0-1.7457 0.65464-0.43642 0.40005-0.80011 0.72737-0.32732 0.32732-0.5819 0.61826-0.07274 0.10911-0.18184 0.29095-0.07274 0.18185-0.14548 0.32732l0.07274-0.0727q-0.18184 0.36369-0.29095 0.5819-0.07274 0.18184-0.14548 0.32732-0.21821 0.43642-0.40005 0.76374-0.18184 0.29095-0.36369 0.5819-0.03637 0.0727-0.07274 0.14547 0 0.0364-0.03637 0.0727-2.364 4.0733-2.5822 5.2371-0.40005 1.7457 0.10911 2.4367 0.54553 0.65464 2.2912 0.65464h0.21821q0.21821 0 0.40005-0.0364t0.40006-0.21821l-0.47279 0.21821h0.14547l4.8734-0.29095 2.5458-0.10911q2.2912 0 3.6732 0.72738h-0.03637q1.4911 0.80011 1.0547 2.8004-0.47279 2.4003-3.5641 4.0369-1.382 0.76374-2.764 1.1274-1.382 0.32732-2.8368 0.32732-1.7457 0-3.4186-0.83648h0.03637l-1.0547-0.65464q-0.29095-0.1091-0.43642-0.18184-0.10911-0.1091-0.29095-0.18184-0.65464-0.47279-1.2002-0.65464-0.54553-0.21821-0.90922-0.21821h-0.54553q-0.32732 0-0.47279 0.0727-0.691 0.10911-1.6366 1.0547-0.98195 0.83648-1.0911 1.5275-0.54553 2.4367 3.746 4.5461 3.5278 1.7457 6.0736 1.7457 2.4731 0 4.8734-0.61827 2.4003-0.65463 4.6916-1.9639 2.7276-1.4911 4.3279-3.455 1.6366-2.0003 2.1457-4.4733 0.29095-1.4184 0.25458-2.6913 0-1.2729-0.29095-2.5458-0.83648-2.7276-2.9459-3.9278l0.07274 0.0364q-0.47279-0.36368-1.1638-0.61826-0.691-0.25458-1.6002-0.43643-0.14548 0-0.21821-0.0364-0.14547-0.0364-0.36369-0.0727-0.21821-0.0727-0.43642-0.18184h0.03637q-0.36369-0.14548-0.72737-0.18185-0.32732-0.0727-0.5819-0.0727h-4.9461q0.18184-0.80011 1.4547-0.80011 0.18184 0 0.43642 0.0364 0.25458 0 0.54553 0.0364t0.54553 0.0364q0.29095 0 0.47279 0 0.65464 0 1.2729-0.0364 0.61827-0.0727 1.2729-0.25458l-0.03637 0.0727q0.18184 0 0.32732 0 0.18184-0.0364 0.36369-0.0364 0.65464-0.0364 1.2002-0.0364t0.83648-0.0727h-0.03637q0.07274 0 0.10911 0 0.07274-0.0364 0.14547-0.0364 1.382-0.10911 2.1821-0.14548 0.83648-0.0364 1.1274-0.1091 0.25458-0.0727 0.47279-0.10911 0.25458-0.0727 0.43642-0.14547 0.61827-0.18185 0.98195-0.25458 0.40006-0.10911 0.94558-0.29095 0.29095-0.25458 0.40005-0.36369 0.10911-0.14547 0.29095-0.21821 0.07274-0.0727 0.14547-0.10911 0.07274-0.0364 0.14548-0.1091 0.94558-0.76374 1.0547-1.3093z"/>
  <path d="m207.29 239.4q0.21822-0.94559-0.18184-2.073v0.0364q-0.40005-1.4548-1.5275-1.4548h-0.0364q-0.0727 0-0.18184 0-0.0727 0-0.25458 0.0727h0.0364-0.0727l-2.6549 0.43642q-0.72737 0.10911-1.0911 0.14548-0.36368 0-0.54553 0h-3.0186q0.0364 0-0.32732 0.0364-0.36368 0.0364-0.58189 0.0727-0.21822 0.0364-0.4728 0.0727-0.21821 0-0.32731 0-0.32732 0.0364-0.83648 0.0727-0.50916 0-1.1638 0h-0.98195q-0.29095 0-0.65463 0-0.32732 0-0.72738-0.0364-0.32731 0-0.65463 0-0.32732-0.0364-0.61827-0.0364h-0.90921q-0.76374 0-1.7457 0.65463-0.43643 0.40006-0.80011 0.72738-0.32732 0.32731-0.5819 0.61826-0.0727 0.10911-0.18184 0.29095-0.0727 0.18184-0.14548 0.32732l0.0727-0.0727q-0.18184 0.36369-0.29095 0.5819-0.0727 0.18184-0.14547 0.32732-0.21822 0.43642-0.40006 0.76374-0.18184 0.29095-0.36368 0.5819-0.0364 0.0727-0.0727 0.14547 0 0.0364-0.0364 0.0727-2.364 4.0733-2.5822 5.2371-0.40006 1.7457 0.10911 2.4367 0.54552 0.65464 2.2912 0.65464h0.21821q0.21821 0 0.40005-0.0364 0.18185-0.0364 0.40006-0.21821l-0.47279 0.21821h0.14547l4.8734-0.29095 2.5458-0.10911q2.2912 0 3.6732 0.72737h-0.0364q1.4911 0.80011 1.0547 2.8004-0.47279 2.4003-3.5641 4.0369-1.382 0.76374-2.764 1.1274-1.382 0.32732-2.8368 0.32732-1.7457 0-3.4186-0.83648h0.0364l-1.0547-0.65464q-0.29095-0.1091-0.43643-0.18184-0.1091-0.10911-0.29094-0.18184-0.65464-0.4728-1.2002-0.65464-0.54553-0.21821-0.90921-0.21821h-0.54553q-0.32732 0-0.47279 0.0727-0.69101 0.1091-1.6366 1.0547-0.98195 0.83647-1.0911 1.5275-0.54553 2.4367 3.746 4.5461 3.5278 1.7457 6.0736 1.7457 2.4731 0 4.8734-0.61827 2.4003-0.65464 4.6915-1.9639 2.7276-1.4911 4.3279-3.455 1.6366-2.0003 2.1458-4.4733 0.29094-1.4184 0.25458-2.6913 0-1.2729-0.29095-2.5458-0.83648-2.7276-2.9459-3.9278l0.0727 0.0364q-0.47279-0.36368-1.1638-0.61826-0.691-0.25458-1.6002-0.43643-0.14547 0-0.21821-0.0364-0.14547-0.0364-0.36368-0.0727-0.21822-0.0727-0.43643-0.18185h0.0364q-0.36368-0.14547-0.72737-0.18184-0.32732-0.0727-0.5819-0.0727h-4.9461q0.18185-0.80011 1.4548-0.80011 0.18184 0 0.43642 0.0364 0.25458 0 0.54553 0.0364t0.54553 0.0364q0.29095 0 0.47279 0 0.65463 0 1.2729-0.0364 0.61827-0.0727 1.2729-0.25458l-0.0364 0.0727q0.18185 0 0.32732 0 0.18184-0.0364 0.36369-0.0364 0.65463-0.0364 1.2002-0.0364t0.83648-0.0727h-0.0364q0.0727 0 0.1091 0 0.0727-0.0364 0.14548-0.0364 1.382-0.10911 2.1821-0.14548 0.83647-0.0364 1.1274-0.1091 0.25458-0.0727 0.47279-0.10911 0.25458-0.0727 0.43643-0.14547 0.61826-0.18185 0.98195-0.25458 0.40005-0.10911 0.94558-0.29095 0.29095-0.25458 0.40006-0.36369 0.1091-0.14547 0.29095-0.21821 0.0727-0.0727 0.14547-0.10911 0.0727-0.0364 0.14547-0.1091 0.94559-0.76374 1.0547-1.3093z"/>
 </g>
</svg>
