<?xml version="1.0" encoding="UTF-8"?>
<svg width="210mm" height="297mm" version="1.1" viewBox="0 0 210 297" xmlns="http://www.w3.org/2000/svg">
 <g stroke="#000" stroke-width=".26458">
  <circle cx="-44.928" cy="20.701" r=".13488"/>
  <circle cx="-44.928" cy="20.701" r=".13488"/>
  <circle cx="-133.38" cy="26.059" r=".13488"/>
 </g>
 <g transform="scale(.94275 1.0607)" stroke-width=".90922" aria-label="1">
  <g transform="scale(1.3595 .73557)" stroke-width="1.1928" aria-label="?">
   <path d="m20.287 59.849q-1.5742 0-3.5158-1.9415t-1.9415-3.3059q0-1.4168 1.2069-2.7811 1.2069-1.4168 2.4138-1.4168t2.7811 2.8336q1.6267 2.8336 1.6267 4.2504 0 0.68216-0.89206 1.5217-0.83958 0.83958-1.6792 0.83958zm-2.6762-34.056q0-3.096 2.8861-5.5098 2.9385-2.4663 6.5592-2.4663 3.6732 0 6.087 2.2039 2.4663 2.2039 2.4663 6.0345 0 2.3089-1.3118 4.6177-1.3118 2.2564-2.991 3.7781-4.8801 4.4078-6.087 6.9266-1.4693 3.2534-1.9415 4.093-0.83958 1.5217-1.8891 1.5217-1.8891 0-1.8891-4.985 0-1.8891 0.94453-3.7257t2.3089-3.2009q1.3643-1.4168 2.7286-2.7286 3.2534-3.1484 3.2534-5.4048 0-0.83958-0.62969-1.3118-0.62969-0.52474-1.6792-0.52474t-1.8366 0.68216q-0.73464 0.62969-0.73464 1.8891t-0.78711 1.6267q-1.2594 0.62969-1.8891 0.62969-0.57721 0-2.099-1.5742-1.4693-1.6267-1.4693-2.5712z"/>
   <path d="m133.72 61.83q-1.5742 0-3.5158-1.9415-1.9415-1.9415-1.9415-3.3059 0-1.4168 1.2069-2.7811 1.2069-1.4168 2.4138-1.4168t2.7811 2.8336q1.6267 2.8336 1.6267 4.2504 0 0.68216-0.89206 1.5217-0.83958 0.83958-1.6792 0.83958zm-2.6762-34.056q0-3.096 2.8861-5.5098 2.9385-2.4663 6.5592-2.4663 3.6732 0 6.087 2.2039 2.4663 2.2039 2.4663 6.0345 0 2.3089-1.3118 4.6177-1.3118 2.2564-2.991 3.7781-4.8801 4.4078-6.087 6.9266-1.4693 3.2534-1.9415 4.093-0.83958 1.5217-1.8891 1.5217-1.8891 0-1.8891-4.985 0-1.8891 0.94453-3.7257 0.94454-1.8366 2.3089-3.2009 1.3643-1.4168 2.7286-2.7286 3.2534-3.1484 3.2534-5.4048 0-0.83958-0.62969-1.3118-0.62969-0.52474-1.6792-0.52474t-1.8366 0.68216q-0.73464 0.62969-0.73464 1.8891t-0.78711 1.6267q-1.2594 0.62969-1.8891 0.62969-0.57721 0-2.099-1.5742-1.4693-1.6267-1.4693-2.5712z"/>
  </g>
 </g>
 <g transform="matrix(.94275 0 0 1.0607 -3.4894 234.84)" stroke-width=".90922" aria-label="1">
  <g transform="scale(1.3595 .73557)" stroke-width="1.1928" aria-label="?">
   <path d="m20.287 59.849q-1.5742 0-3.5158-1.9415t-1.9415-3.3059q0-1.4168 1.2069-2.7811 1.2069-1.4168 2.4138-1.4168t2.7811 2.8336q1.6267 2.8336 1.6267 4.2504 0 0.68216-0.89206 1.5217-0.83958 0.83958-1.6792 0.83958zm-2.6762-34.056q0-3.096 2.8861-5.5098 2.9385-2.4663 6.5592-2.4663 3.6732 0 6.087 2.2039 2.4663 2.2039 2.4663 6.0345 0 2.3089-1.3118 4.6177-1.3118 2.2564-2.991 3.7781-4.8801 4.4078-6.087 6.9266-1.4693 3.2534-1.9415 4.093-0.83958 1.5217-1.8891 1.5217-1.8891 0-1.8891-4.985 0-1.8891 0.94453-3.7257t2.3089-3.2009q1.3643-1.4168 2.7286-2.7286 3.2534-3.1484 3.2534-5.4048 0-0.83958-0.62969-1.3118-0.62969-0.52474-1.6792-0.52474t-1.8366 0.68216q-0.73464 0.62969-0.73464 1.8891t-0.78711 1.6267q-1.2594 0.62969-1.8891 0.62969-0.57721 0-2.099-1.5742-1.4693-1.6267-1.4693-2.5712z"/>
   <path d="m133.72 61.83q-1.5742 0-3.5158-1.9415-1.9415-1.9415-1.9415-3.3059 0-1.4168 1.2069-2.7811 1.2069-1.4168 2.4138-1.4168t2.7811 2.8336q1.6267 2.8336 1.6267 4.2504 0 0.68216-0.89206 1.5217-0.83958 0.83958-1.6792 0.83958zm-2.6762-34.056q0-3.096 2.8861-5.5098 2.9385-2.4663 6.5592-2.4663 3.6732 0 6.087 2.2039 2.4663 2.2039 2.4663 6.0345 0 2.3089-1.3118 4.6177-1.3118 2.2564-2.991 3.7781-4.8801 4.4078-6.087 6.9266-1.4693 3.2534-1.9415 4.093-0.83958 1.5217-1.8891 1.5217-1.8891 0-1.8891-4.985 0-1.8891 0.94453-3.7257 0.94454-1.8366 2.3089-3.2009 1.3643-1.4168 2.7286-2.7286 3.2534-3.1484 3.2534-5.4048 0-0.83958-0.62969-1.3118-0.62969-0.52474-1.6792-0.52474t-1.8366 0.68216q-0.73464 0.62969-0.73464 1.8891t-0.78711 1.6267q-1.2594 0.62969-1.8891 0.62969-0.57721 0-2.099-1.5742-1.4693-1.6267-1.4693-2.5712z"/>
  </g>
 </g>
</svg>
